<svg height="455" viewBox="0 0 1012 455" width="1012" xmlns="http://www.w3.org/2000/svg" xmlns:xlink="http://www.w3.org/1999/xlink"><linearGradient id="a" x1="50%" x2="50%" y1="100%" y2=".124653%"><stop offset="0" stop-color="#fff"/><stop offset=".873" stop-color="#eff0f1"/><stop offset=".949" stop-color="#eeeff0"/></linearGradient><g fill="none" fill-rule="evenodd"><path d="m799-10h218v218h-218z"/><g transform="translate(851)"><g fill="#e0e2e4"><path d="m33.1596943 80.1961604c.6676856-3.6008422 28.7529695-44.9771303 28.7529695-44.9771303 1.3232314-1.9977691 3.9332751-2.4471154 6.069869-1.2144493l9.6389519 4.9913867c8.0061572 5.1431928 6.1851965 10.8875381 3.478035 19.7044401l-7.6541049 21.4532471h55.2358082c5.772445 0 9.71179 3.2243629 9.71179 9.1083699 0 5.8293567.261004 11.7315804-.655546 17.5366484-.722314 4.590618-18.944061 71.282102-18.944061 71.282102.000322 1.025962-.406937 2.009995-1.132118 2.73546-.72518.725464-1.708828 1.132883-2.734388 1.132561h-79.4485157c-.7362129-.001223-1.4401902-.302285-1.9497795-.83384s-.7808542-1.247773-.7513122-1.983682l-.0060699-91.9823912c-.1183063-2.3248005.0119228-4.6555928.3884716-6.9527224z"/><rect fill-rule="nonzero" height="102.620967" rx="5" width="30.349345" y="79.54643"/><path d="m108.929869 19.2550939c-.750374-.746783-1.962857-.746783-2.713231 0l-11.5752406 11.5797742c-.4954337.4817839-.6936691 1.1928421-.5189919 1.8615921.1746771.6687501.6952868 1.1918991 1.3629867 1.3696351.6677.177736 1.3793596-.0173936 1.8631668-.5108608l11.57524-11.5737019c.75124-.7524683.753952-1.9706304.00607-2.7264387zm-87.3879039.0182167c.3602185-.3614646.8494431-.5646265 1.3596506-.5646265.5102076 0 .9994322.2031619 1.3596507.5646265l11.6116594 11.597991c.4948457.4832181.6922277 1.1950311.5169382 1.8642197-.1752894.6691887-.6962532 1.1926884-1.3643907 1.3710322-.6681374.1783438-1.3805458-.0159358-1.865779-.5088132l-11.6116594-11.597991c-.7542389-.75122-.7569564-1.9718652-.0060698-2.7264387z"/><rect fill-rule="nonzero" height="20.645638" rx="2.124454" width="4.248908" x="63.733625"/></g><path d="m85.0085153 14.6341142c-.4627268-.2125225-.9909757-.23208-1.4681394-.0543552s-.8640065.5381181-1.0751357 1.0016257l-2.7375109 5.9993796c-.2873337.6226192-.2208076 1.3512937.1745185 1.911539.3953262.5602452 1.0593928.8669466 1.7420525.8045727.6826597-.062374 1.2802002-.4843472 1.5675338-1.1069664l2.7375109-5.9993796c.442706-.9659631.0223142-2.1082486-.9408297-2.5564158zm-40.2978603-.1943119c.4626596-.2130267.9911006-.2328438 1.4684043-.0550669.4773037.177777.8641221.5384925 1.0748708 1.0023374l2.7435808 5.9993796c.2997944.6256107.2393857 1.3642819-.1580669 1.9328268-.3974526.568545-1.0702845.8787542-1.7605499.8117017s-1.29087-.5009635-1.5715579-1.1353831l-2.7375109-5.9993797c-.442706-.9659631-.0223142-2.1082486.9408297-2.5564158zm-27.0837554 28.9160382c.1802708-.478149.5434763-.8647854 1.0093325-1.0744458.4658561-.2096604.9959989-.225079 1.4732439-.0428476l6.069869 2.3438872c.6429769.2429732 1.107538.8106482 1.2186878 1.4891872.1111497.678539-.1479983 1.3648558-.6798255 1.8004214s-1.2555363.5542072-1.898513.3112336l-6.0637991-2.3438872c-.4795505-.1787514-.8682002-.5411945-1.0800528-1.0072248-.2118525-.4660303-.2294643-.9972756-.0489428-1.476324zm94.6717464-.0303612c-.178511-.4766519-.539514-.8625016-1.003144-1.0721853s-.991667-.2259169-1.467292-.0451081l-6.03345 2.3438872c-.651484.2330493-1.126798.7993276-1.243563 1.4815521-.116766.6822246.143152 1.3744394.680022 1.8110396.536871.4366003 1.267312.5497778 1.911052.296106l6.03345-2.3378149c.990194-.3779372 1.491213-1.4833195 1.122925-2.4774766z" fill="#eeeff0"/><g transform="translate(110.471616 148.770041)"><path d="m16.4918341 9.73381125c-.8862009-.23681762-2.5372053 3.05434005-3.7026201 7.34134615-1.1654149 4.287006-1.3839302 7.954643-.5037992 8.1853883.8801311.2307454 2.5432752-3.05434 3.7026201-7.3413461 1.159345-4.2870061 1.3839302-7.94857073.5037992-8.18538835z" fill="#e0e2e4"/><path d="m.80122271 8.25825533c.98331877-.22467312 2.82248908 2.92075057 4.11537118 7.02558927 1.29288209 4.1048387 1.54174672 7.6145972.55842794 7.8392703-.98331877.2246732-2.82248908-2.9207506-4.10930131-7.0255892-1.28681222-4.1048387-1.54174672-7.61459724-.56449781-7.83927037z" fill="#ecedee"/><path d="m9.42650655.52828545c-1.82703057 0-3.3080786 2.02813036-3.3080786 8.9322747 0 6.90414435 1.48104803 16.07323665 3.3080786 16.07323665 1.82703055 0 3.30807865-9.1690923 3.30807865-16.07323665 0-6.90414434-1.4810481-8.9322747-3.30807865-8.9322747z" fill="#c0c3c7"/><path d="m3.9939738 23.7728453h9.9181659c.8260739-.0043743 1.4996466.661311 1.5053275 1.4877004l-1.802751 8.3554113c-.0014457.3978347-.1608943.7787821-.4432337 1.0589543-.2823395.2801722-.6644163.4365935-1.0620939.4348184h-6.31266371c-.39706866.0016147-.77842803-.1550513-1.05976923-.4353632-.2813412-.280312-.43949169-.661182-.43948841-1.0584095l-1.80882096-8.3554113c.00568095-.8263894.67925366-1.4920747 1.50532751-1.4877004z" fill="#ecedee"/></g></g><g transform="translate(804 76)"><path d="m48.4767347 17.802459s-.4911953 5.0404918-3.8628571 6.5568853c-.0828533.9646715-.0828533 1.9346727 0 2.8993442h11.9706122v-2.7052459c-2.4917555-1.3308049-4.0487279-3.9255953-4.0508455-6.7509836z" fill="#fac6ba"/><path d="m52.7580175 18.6152459c0 2.6688525-4.851312 3.0327869-4.851312 3.0327869.2839186-.5761556.4879373-1.1883563.606414-1.8196721.074808-.8070125.074808-1.6192171 0-2.4262296.5913278.7409053 1.4782753 1.1844839 2.425656 1.2131148.5177741.0302048 1.0343722-.0764864 1.4978426-.3093443.1326775-.0672531.2439785-.1701784.3213994-.2972131z" fill="#e2a799"/><path d="m43.9953353 9.69885246c-1.3098543.52163934-2.383207 3.05704914 1.431137 4.54311474.8004665 2.8629508 2.8925948 4.4036066 5.1060058 4.6098361 2.2134111.2062295 5.5790088-1.3465574 5.7063557-9.86262297-.5518367-3.70606558-1.2855976-3.76065574-1.2855976-3.76065574l-10.22414-.5095082z" fill="#fac6ba"/><path d="m44.9534694 12.664918s-1.5463557-.454918-2.1830904-4.79180325c-.6367347-4.33688524 1.5281633-7.78213114 6.7311953-7.85491803 5.2030321-.07278688 6.543207 1.48 6.8039651 2.40196721-.3759767 1.92885246-1.7828572 1.98344263-1.776793 3.36032787-1.7464723-.8552459-7.3254811-.58836065-8.2714869.4852459-1.0915452 1.2495082-1.7586006 4.07-1.3037901 6.3991803z" fill="#3e4656"/><path d="m53.7707289 5.53180328s1.5039067.49737705 2.0193586 5.19819672c.6427988-.0788525 2.3650145-5.1557377.2546938-7.36360656 0 0-1.7707288-.04852459-2.2740524 2.16540984z" fill="#14161b"/><path d="m44.2257726 23.5890164s3.1715452 1.9288525 6.3734111 1.9288525c3.2685714 0 6.5674635-1.9288525 6.5674635-1.9288525s9.3690962.867377 12.7468222 4.0518033c3.3777259 3.1844262 10.0300875 28.5081967.5760933 29.5272131-6.4704373-.1940984-13.7110204-6.9511476-13.7110204-6.9511476l-18.1499709 5.5985246s-13.8141108 7.7214754-13.3289796-2.6991803.5821575-21.6116393 5.6032653-25.3783606c5.0211079-3.7667214 13.3229155-4.1488525 13.3229155-4.1488525z" fill="#eeeff0"/><path d="m64.1161516 35.9385246c-1.2006997 2.6445902-.8793003 6.1686885.1940525 8.6859016.8135468 1.7544907 2.2639569 3.1336819 4.0569096 3.8577049 0 0-.4184257-1.8196721-1.5463557-5.9806557-1.2431487-4.5977049-2.1952186-7.685082-2.7046064-6.5629508zm-27.0339359 2.7052459c-.9217492 1.0978688-2.9107871 7.2604918-2.8986588 9.4562295.0060641.5701639 3.7658309-2.6081967 4.0569096-4.6340984.1446614-1.6903096-.2616829-3.3820376-1.1582508-4.8221311z" fill="#d9dcde"/><g fill="#cdd0d4"><path d="m48.6525948 102.320164 10.2544606 1.965246 1.1218659 1.067541h-26.6700875l.9338776-1.067541 10.8123615-1.965246.3759767-.606557v-32.1475414h-14.2507289c-.837283 0-1.516035-.6789125-1.516035-1.5163935 0-.8374809.678752-1.5163934 1.516035-1.5163934h32.7463557c.837283 0 1.516035.6789125 1.516035 1.5163934 0 .837481-.678752 1.5163935-1.516035 1.5163935h-15.4635569v32.1475414z"/><path d="m34.2805831 104.631148c.5872777-.004916 1.1194667.345151 1.3476218.886449.228155.541297.1071682 1.166806-.3063659 1.583929-.4135341.417122-1.0378565.54339-1.5809243.319737-.5430678-.223652-.8975122-.753006-.8975328-1.340443-.0006893-.796191.6412214-1.443671 1.4372012-1.449672zm12.9348105 0c.8004425 0 1.4493294.64904 1.4493294 1.449672 0 .800631-.6488869 1.449672-1.4493294 1.449672-.8004426 0-1.4493295-.649041-1.4493295-1.449672 0-.800632.6488869-1.449672 1.4493295-1.449672zm13.3289796 0c.5872777-.004916 1.1194667.345151 1.3476218.886449.228155.541297.1071681 1.166806-.3063659 1.583929-.4135341.417122-1.0378565.54339-1.5809243.319737-.5430678-.223652-.8975122-.753006-.8975328-1.340443-.0030209-.797148.6402449-1.445995 1.4372012-1.449672z"/><path d="m48.5131195 69.5660656v31.5409834m-3.0320699 0v-31.5409834"/></g><path d="m60.6413994 66.5332787s-20.5998834.2486885-20.6180758 0c-2.8258892 0-7.7317784-11.3547541 3.0441983-14.3814754 13.9172011-3.9122951 20.2178425-5.0647541 22.7890379 2.6991803 2.5711953 7.7639344 11.7644315 36.5511475 11.7644315 36.5511475l-4.244898 2.4262296z" fill="#47546b"/><path d="m47.3002915 66.5332787s4.329796-6.6357377 8.101691-7.0481967c-2.8016326 4.1913114-2.643965 7.0481967-2.643965 7.0481967z" fill="#2e3c56"/><path d="m47.3002915 102.320164 3.4929447-34.7314755s.4002332-9.99 7.3376093-8.6859016c5.9853061 1.1281967 2.3165014 10.6147541 2.3165014 10.6147541l-8.2957434 32.802623z" fill="#5d6d88"/><path d="m74.1583673 92.6698361c.6730587 1.1095913 1.2551002 2.271921 1.7404082 3.4755737.3638484 1.1645902 1.5039067 1.0978689 3.6142274-.1091803 3.4141108-1.9409836 5.2697376-3.1722951 5.2697376-3.1722951s1.2916618-2.0562295-1.7404081-1.5406557c-3.03207.5155738-5.5972012.9644262-5.5972012.9644262l-.5821574-1.1585246zm-25.8756851 9.4562299c.0000053.808558-.1999892 1.604557-.5821574 2.317049-.5942857.952295-1.8374344 3.281475.1940525 3.281475h4.2509621c1.3401749 0 1.4008163-1.971311-.388105-2.69918-1.0976093-.612623-.388105-2.899344-.388105-2.899344z" fill="#353e50"/><path d="m54.4620408 50.9932787c.8647476-.0585577 1.6914454-.377895 2.3710787-.9159017.5837263-.3683341 1.2166294-.6521867 1.8798834-.8431147l-.0060641-1.2859016s-2.5166181-1.067541-6.3370263.1577049c-2.0436151.8431147-2.3104373 1.7408196-1.5766763 1.9227869-.0727697.2547541.5033236.6429508.9641982.5762295-.0242566.2183606.9581341.37 1.1582507.1940983.2789505.3760656 1.3886881.200164 1.5463557.1940984z" fill="#f7b7b2"/><path d="m50.7932362 45.2006557c-.8835248.0343408-1.7150329-.4175472-2.1670048-1.1776717-.451972-.7601245-.451972-1.7066632 0-2.4667877.4519719-.7601245 1.28348-1.2120125 2.1670048-1.1776717v.7521311c-.6076686-.0232487-1.1793941.2877592-1.4901371.8106065-.3107429.5228473-.3107429 1.1738086 0 1.6966559.310743.5228473.8824685.8338553 1.4901371.8106065z" fill="#565d6d"/><rect fill="#959db0" fill-rule="nonzero" height="6.957213" rx="2" width="5.021108" x="50.411195" y="39.22"/><path d="m59.4285714 24.6808197c-2.2316035 1.0978688.4730029 3.2511475-2.2619242 4.3126229-3.1715452 1.2313115-5.4941108 2.505082-4.4086297 6.6054099.4148474 1.5001077-.370531 3.071236-1.819242 3.6393442h3.638484c6.719067-2.9842623 1.5706122-5.8290164 5.0999417-7.3514754 3.5293294-1.522459 7.6590087-1.0008197 10.0604081-4.1731147-2.9994884-2.1378543-6.6300116-3.2059077-10.3090379-3.0327869z" fill="url(#a)"/><path d="m44.5168513 45.267377c1.6312537-.2486885 2.0254228.3093443 4.0993586.0303279 1.3280467-.2729508 1.7889213-.4852459 1.7889213-2.4080328.0563093-.4229637-.0893938-.8478063-.3934181-1.1471324-.3040243-.299326-.7310169-.4383289-1.1529376-.3753266.4548105-.127377.9278134-.3821311.8793003-.7036065-.0545773-.4367214-.4669388-.5883607-1.6069971-.3639345-1.4807229.3745564-2.8520619 1.0936404-4.0023323 2.0986886 0 0 .3335277 2.4686885.3881049 2.8690163z" fill="#f7b7b2"/><rect fill="#f5f5f5" fill-rule="nonzero" height="1.934918" rx=".967459" width="208" y="108.877049"/></g><path d="m-5-10h218v218h-218z"/><g transform="translate(46 26)"><path d="m129.377465 132.405211c-.884977-.236092-2.551174 3.044981-3.716902 7.31885-1.165727 4.27387-1.397652 7.930269-.506572 8.160307.891079.230038 2.551173-3.044981 3.716901-7.318851 1.165728-4.273869 1.397653-7.924214.506573-8.160306z" fill="#e0e2e4"/><g fill-rule="nonzero"><rect fill="#edeeef" height="123.252107" rx="5" width="111.976995" x="4.919249"/><g fill="#fbfbfb"><rect height="3.02682" rx="1.51341" width="34.788732" x="20.140845" y="17.367893"/><rect height="3.02682" rx="1.51341" width="79.342723" x="20.140845" y="27.053717"/><rect height="3.02682" rx="1.51341" width="79.342723" x="20.140845" y="37.344904"/><rect height="3.02682" rx="1.51341" width="79.342723" x="20.140845" y="47.030728"/><rect height="3.02682" rx="1.51341" width="79.342723" x="20.140845" y="56.716552"/></g></g><path d="m1.26948357 63.3634483 60.19671363 38.5132567 60.0563378-38.5132567c.210446-.0048726.414219.0734025.566461.2175946.152243.144192.240476.3424811.245276.5512176v91.4765515c-.009014.436051-.372088.782633-.811737.774866h-120.25305143c-.43964911.007767-.80272311-.338815-.81173709-.774866v-91.4765515c.00480044-.2087365.09303336-.4070256.24527603-.5512176.15224266-.1441921.35601519-.2224672.56646106-.2175946z" fill="#e0e2e4"/><path d="m113.606573 130.934176c.988732-.223984 2.838028 2.911801 4.138028 7.004062 1.3 4.09226 1.550235 7.591264.561502 7.815249-.988732.223984-2.838028-2.911801-4.138028-7.004062-1.3-4.09226-1.550235-7.591264-.561502-7.815249z" fill="#ecedee"/><path d="m122.273239 123.227893c-1.837089 0-3.326291 2.021915-3.326291 8.904904 0 6.882988 1.489202 16.023985 3.326291 16.023985 1.83709 0 3.332395-9.140997 3.332395-16.023985 0-6.882989-1.489202-8.904904-3.332395-8.904904z" fill="#c0c3c7"/><path d="m116.816901 146.401226h9.97277c.830622-.004361 1.507903.659285 1.513615 1.483142l-1.818779 8.329808c.000003.396011-.159018.775714-.441908 1.055166-.28289.279453-.666349.435639-1.065604.43403h-6.347418c-.399866.001769-.784047-.154173-1.067941-.433486-.283894-.279314-.44422-.659094-.445674-1.05571l-1.812676-8.329808c.005713-.823857.682994-1.487503 1.513615-1.483142z" fill="#ecedee"/><path d="m61.3929577 81.6514943c8.6317006.003343 15.6266594 6.9459185 15.6244127 15.5074058-.0022468 8.5614869-7.0008484 15.5004499-15.6325496 15.4993359-8.6317011-.001114-15.6284821-6.941883-15.6284828-15.5033701.0004855-4.1126511 1.6482611-8.056632 4.5807664-10.9641478 2.9325052-2.9075158 6.9094741-4.5403479 11.0558533-4.5392238z" fill="#fbfbfb"/><path d="m61.1122066 89.3577778c-1.5119063-.0845041-2.9855652.4904348-4.0342723 1.5739463-.987403 1.0953239-1.4966068 2.5343145-1.4159625 4.001456h1.8981221c-.0571439-.9769424.2226775-1.9440809.7934272-2.7422989 1.31995-1.4103667 3.5192825-1.556327 5.0169014-.3329502.5656955.5971022.8611009 1.3973926.8178404 2.2156322-.0093795.6920369-.2643813 1.3586512-.7201878 1.882682-.2576815.3001618-.5306505.5870744-.8178404.8596169-.9738011.7626014-1.7955404 1.6987853-2.4230047 2.7604597-.2998728.6489152-.4480074 1.3566602-.4333333 2.0703452v.544827h1.9225352v-.544827c-.0139254-.61016.1446401-1.212002.4577465-1.737395.2926047-.5006666.6753048-.9438601 1.129108-1.3075862.6808877-.5750849 1.328846-1.187457 1.9408451-1.8342528.6120482-.8020938.9344815-1.784978.9154929-2.790728.0634195-1.2592554-.4289648-2.4835178-1.3488263-3.3537165-1.0196375-.8834975-2.3466368-1.3374361-3.6985915-1.2652107zm-.3600939 14.5045212c-.3864793-.017347-.7619464.130296-1.0314554.405594-.2782971.256742-.4279732.622348-.4089202.99885-.0146157.382853.1337914.754148.4089202 1.023065.2774308.263295.6474985.408814 1.0314554.405594.3855621.002132.7571372-.143121 1.0375587-.405594.2881511-.261426.4446193-.636112.42723-1.023065.0098859-.373719-.1358067-.734988-.4028169-.99885-.2821351-.27516-.6666414-.422013-1.0619718-.405594z" fill="#e0e2e4"/></g><g transform="translate(0 76)"><path d="m48.4767347 17.802459s-.4911953 5.0404918-3.8628571 6.5568853c-.0828533.9646715-.0828533 1.9346727 0 2.8993442h11.9706122v-2.7052459c-2.4917555-1.3308049-4.0487279-3.9255953-4.0508455-6.7509836z" fill="#fac6ba"/><path d="m52.7580175 18.6152459c0 2.6688525-4.851312 3.0327869-4.851312 3.0327869.2839186-.5761556.4879373-1.1883563.606414-1.8196721.074808-.8070125.074808-1.6192171 0-2.4262296.5913278.7409053 1.4782753 1.1844839 2.425656 1.2131148.5177741.0302048 1.0343722-.0764864 1.4978426-.3093443.1326775-.0672531.2439785-.1701784.3213994-.2972131z" fill="#e2a799"/><path d="m43.9953353 9.69885246c-1.3098543.52163934-2.383207 3.05704914 1.431137 4.54311474.8004665 2.8629508 2.8925948 4.4036066 5.1060058 4.6098361 2.2134111.2062295 5.5790088-1.3465574 5.7063557-9.86262297-.5518367-3.70606558-1.2855976-3.76065574-1.2855976-3.76065574l-10.22414-.5095082z" fill="#fac6ba"/><path d="m44.9534694 12.664918s-1.5463557-.454918-2.1830904-4.79180325c-.6367347-4.33688524 1.5281633-7.78213114 6.7311953-7.85491803 5.2030321-.07278688 6.543207 1.48 6.8039651 2.40196721-.3759767 1.92885246-1.7828572 1.98344263-1.776793 3.36032787-1.7464723-.8552459-7.3254811-.58836065-8.2714869.4852459-1.0915452 1.2495082-1.7586006 4.07-1.3037901 6.3991803z" fill="#3e4656"/><path d="m53.7707289 5.53180328s1.5039067.49737705 2.0193586 5.19819672c.6427988-.0788525 2.3650145-5.1557377.2546938-7.36360656 0 0-1.7707288-.04852459-2.2740524 2.16540984z" fill="#14161b"/><path d="m44.2257726 23.5890164s3.1715452 1.9288525 6.3734111 1.9288525c3.2685714 0 6.5674635-1.9288525 6.5674635-1.9288525s9.3690962.867377 12.7468222 4.0518033c3.3777259 3.1844262 10.0300875 28.5081967.5760933 29.5272131-6.4704373-.1940984-13.7110204-6.9511476-13.7110204-6.9511476l-18.1499709 5.5985246s-13.8141108 7.7214754-13.3289796-2.6991803.5821575-21.6116393 5.6032653-25.3783606c5.0211079-3.7667214 13.3229155-4.1488525 13.3229155-4.1488525z" fill="#eeeff0"/><path d="m64.1161516 35.9385246c-1.2006997 2.6445902-.8793003 6.1686885.1940525 8.6859016.8135468 1.7544907 2.2639569 3.1336819 4.0569096 3.8577049 0 0-.4184257-1.8196721-1.5463557-5.9806557-1.2431487-4.5977049-2.1952186-7.685082-2.7046064-6.5629508zm-27.0339359 2.7052459c-.9217492 1.0978688-2.9107871 7.2604918-2.8986588 9.4562295.0060641.5701639 3.7658309-2.6081967 4.0569096-4.6340984.1446614-1.6903096-.2616829-3.3820376-1.1582508-4.8221311z" fill="#d9dcde"/><g fill="#cdd0d4"><path d="m48.6525948 102.320164 10.2544606 1.965246 1.1218659 1.067541h-26.6700875l.9338776-1.067541 10.8123615-1.965246.3759767-.606557v-32.1475414h-14.2507289c-.837283 0-1.516035-.6789125-1.516035-1.5163935 0-.8374809.678752-1.5163934 1.516035-1.5163934h32.7463557c.837283 0 1.516035.6789125 1.516035 1.5163934 0 .837481-.678752 1.5163935-1.516035 1.5163935h-15.4635569v32.1475414z"/><path d="m34.2805831 104.631148c.5872777-.004916 1.1194667.345151 1.3476218.886449.228155.541297.1071682 1.166806-.3063659 1.583929-.4135341.417122-1.0378565.54339-1.5809243.319737-.5430678-.223652-.8975122-.753006-.8975328-1.340443-.0006893-.796191.6412214-1.443671 1.4372012-1.449672zm12.9348105 0c.8004425 0 1.4493294.64904 1.4493294 1.449672 0 .800631-.6488869 1.449672-1.4493294 1.449672-.8004426 0-1.4493295-.649041-1.4493295-1.449672 0-.800632.6488869-1.449672 1.4493295-1.449672zm13.3289796 0c.5872777-.004916 1.1194667.345151 1.3476218.886449.228155.541297.1071681 1.166806-.3063659 1.583929-.4135341.417122-1.0378565.54339-1.5809243.319737-.5430678-.223652-.8975122-.753006-.8975328-1.340443-.0030209-.797148.6402449-1.445995 1.4372012-1.449672z"/><path d="m48.5131195 69.5660656v31.5409834m-3.0320699 0v-31.5409834"/></g><path d="m60.6413994 66.5332787s-20.5998834.2486885-20.6180758 0c-2.8258892 0-7.7317784-11.3547541 3.0441983-14.3814754 13.9172011-3.9122951 20.2178425-5.0647541 22.7890379 2.6991803 2.5711953 7.7639344 11.7644315 36.5511475 11.7644315 36.5511475l-4.244898 2.4262296z" fill="#47546b"/><path d="m47.3002915 66.5332787s4.329796-6.6357377 8.101691-7.0481967c-2.8016326 4.1913114-2.643965 7.0481967-2.643965 7.0481967z" fill="#2e3c56"/><path d="m47.3002915 102.320164 3.4929447-34.7314755s.4002332-9.99 7.3376093-8.6859016c5.9853061 1.1281967 2.3165014 10.6147541 2.3165014 10.6147541l-8.2957434 32.802623z" fill="#5d6d88"/><path d="m74.1583673 92.6698361c.6730587 1.1095913 1.2551002 2.271921 1.7404082 3.4755737.3638484 1.1645902 1.5039067 1.0978689 3.6142274-.1091803 3.4141108-1.9409836 5.2697376-3.1722951 5.2697376-3.1722951s1.2916618-2.0562295-1.7404081-1.5406557c-3.03207.5155738-5.5972012.9644262-5.5972012.9644262l-.5821574-1.1585246zm-25.8756851 9.4562299c.0000053.808558-.1999892 1.604557-.5821574 2.317049-.5942857.952295-1.8374344 3.281475.1940525 3.281475h4.2509621c1.3401749 0 1.4008163-1.971311-.388105-2.69918-1.0976093-.612623-.388105-2.899344-.388105-2.899344z" fill="#353e50"/><path d="m54.4620408 50.9932787c.8647476-.0585577 1.6914454-.377895 2.3710787-.9159017.5837263-.3683341 1.2166294-.6521867 1.8798834-.8431147l-.0060641-1.2859016s-2.5166181-1.067541-6.3370263.1577049c-2.0436151.8431147-2.3104373 1.7408196-1.5766763 1.9227869-.0727697.2547541.5033236.6429508.9641982.5762295-.0242566.2183606.9581341.37 1.1582507.1940983.2789505.3760656 1.3886881.200164 1.5463557.1940984z" fill="#f7b7b2"/><path d="m50.7932362 45.2006557c-.8835248.0343408-1.7150329-.4175472-2.1670048-1.1776717-.451972-.7601245-.451972-1.7066632 0-2.4667877.4519719-.7601245 1.28348-1.2120125 2.1670048-1.1776717v.7521311c-.6076686-.0232487-1.1793941.2877592-1.4901371.8106065-.3107429.5228473-.3107429 1.1738086 0 1.6966559.310743.5228473.8824685.8338553 1.4901371.8106065z" fill="#565d6d"/><rect fill="#959db0" fill-rule="nonzero" height="6.957213" rx="2" width="5.021108" x="50.411195" y="39.22"/><path d="m59.4285714 24.6808197c-2.2316035 1.0978688.4730029 3.2511475-2.2619242 4.3126229-3.1715452 1.2313115-5.4941108 2.505082-4.4086297 6.6054099.4148474 1.5001077-.370531 3.071236-1.819242 3.6393442h3.638484c6.719067-2.9842623 1.5706122-5.8290164 5.0999417-7.3514754 3.5293294-1.522459 7.6590087-1.0008197 10.0604081-4.1731147-2.9994884-2.1378543-6.6300116-3.2059077-10.3090379-3.0327869z" fill="url(#a)"/><path d="m44.5168513 45.267377c1.6312537-.2486885 2.0254228.3093443 4.0993586.0303279 1.3280467-.2729508 1.7889213-.4852459 1.7889213-2.4080328.0563093-.4229637-.0893938-.8478063-.3934181-1.1471324-.3040243-.299326-.7310169-.4383289-1.1529376-.3753266.4548105-.127377.9278134-.3821311.8793003-.7036065-.0545773-.4367214-.4669388-.5883607-1.6069971-.3639345-1.4807229.3745564-2.8520619 1.0936404-4.0023323 2.0986886 0 0 .3335277 2.4686885.3881049 2.8690163z" fill="#f7b7b2"/><rect fill="#f5f5f5" fill-rule="nonzero" height="1.934918" rx=".967459" width="208" y="108.877049"/></g><path d="m-5 258h218v218h-218z"/><g transform="translate(53 264)"><path d="m112.372735 56.8080386c-.002001-.66671-.544733-1.2066905-1.21484-1.2086817h-7.289043c-.670107.0019912-1.212839.5419717-1.21484 1.2086817v9.6694534h-8.5038826v-55.599357c-.0020013-.6667099-.5447333-1.20669044-1.2148404-1.20868162h-6.0742019v-8.46077171c-.0020013-.66670994-.5447332-1.20669049-1.2148403-1.20868167h-28.548749c-.670107.00199118-1.212839.54197173-1.2148403 1.20868167v71.91655953h-22.4745471v-4.8347267c-.0020013-.66671-.5447333-1.2066905-1.2148403-1.2086817h-21.2597067c-.6701071.0019912-1.21283903.5419717-1.21484036 1.2086817v4.8347267h-8.50388266c-.67010709.0019911-1.21283905.5419717-1.21484038 1.2086816v110.5943732c.00200133.66671.54473329 1.20669 1.21484038 1.208681h109.94305462c.670107-.001991 1.212839-.541971 1.21484-1.208681z" fill="#f5f5f6"/><rect fill="#edeeef" fill-rule="nonzero" height="157.092357" rx="2" width="49.522968" x="31.88956" y="29.213836"/><rect fill="#e0e2e4" fill-rule="nonzero" height="98.054301" rx="2" width="45.653702" x="73.667921" y="88.251892"/><g fill="#f5f5f6"><path d="m82.0017256 97.2988746h13.3632442v13.2954984h-13.3632442zm15.1855048 0h13.3632446v13.2954984h-13.3632446zm-15.1855048 15.1085204h13.3632442v13.295499h-13.3632442zm15.1855048 0h13.3632446v13.295499h-13.3632446z"/><path d="m83.8239862 146.250482c.7627274-.001652 1.4449439.471788 1.7068507 1.184508l4.3673512.024174c.3354689 0 .6074202.270573.6074202.604341s-.2719513.604341-.6074202.604341l-4.3552028.006043c-.3115828.867045-1.2269195 1.364012-2.128385 1.155573s-1.5027223-1.056078-1.3980712-1.97097c.104651-.914892.8819689-1.606435 1.8074571-1.60801z"/><rect fill-rule="nonzero" height="1.208682" rx=".604341" width="5.466782" x="85.038827" y="147.459164"/></g><path d="m35.8377912 33.238746h3.0371009v149.272186h-3.0371009zm5.4667817 0h3.037101v149.272186h-3.037101zm5.4667817 0h3.037101v149.272186h-3.037101z" fill="#f8f8f8"/><g transform="translate(109.943054 152.898232)"><path d="m16.3881967 9.6875836c-.8807593-.23569292-2.5390164 3.0398344-3.6991889 7.3064807-1.1601726 4.2666463-1.3909923 7.916865-.5041588 8.1465145s2.5390164-3.0398344 3.699189-7.3064807c1.1601725-4.2666463 1.3909922-7.91082157.5041587-8.1465145z" fill="#e0e2e4"/><path d="m.69245902 8.21903537c.9840207-.22360611 2.82450388 2.90687943 4.11830888 6.99222343 1.29380501 4.0853441 1.54284729 7.5784341.55882658 7.8020402s-2.82450388-2.9068794-4.11830889-6.9922234c-1.293805-4.0853441-1.54284728-7.57843412-.55882657-7.80204023z" fill="#ecedee"/><path d="m9.31782571.52577653c-1.82833477 0-3.31044003 2.01849839-3.31044003 8.8898537 0 6.87135527 1.48210526 15.99690197 3.31044003 15.99690197 1.82833479 0 3.31651419-9.1255467 3.31651419-15.99690197 0-6.87135531-1.4821052-8.8898537-3.31651419-8.8898537z" fill="#c0c3c7"/><path d="m3.88748921 23.6599437h9.92524589c.8266636-.0043535 1.5007171.6581703 1.5064021 1.4806351l-1.8101122 8.3157299c.0000033.3953409-.1582601.7744022-.4398021 1.0533828-.281542.2789807-.6631736.4349027-1.0605257.4332956h-6.31717002c-.39796143.0017667-.78031101-.1539117-1.06285201-.4327533-.28254099-.2788416-.44210336-.6579799-.44355006-1.0539251l-1.80403797-8.3157299c.00568501-.8224648.67973854-1.4849886 1.50640207-1.4806351z" fill="#ecedee"/></g></g><g transform="translate(0 344)"><path d="m48.4767347 17.802459s-.4911953 5.0404918-3.8628571 6.5568853c-.0828533.9646715-.0828533 1.9346727 0 2.8993442h11.9706122v-2.7052459c-2.4917555-1.3308049-4.0487279-3.9255953-4.0508455-6.7509836z" fill="#fac6ba"/><path d="m52.7580175 18.6152459c0 2.6688525-4.851312 3.0327869-4.851312 3.0327869.2839186-.5761556.4879373-1.1883563.606414-1.8196721.074808-.8070125.074808-1.6192171 0-2.4262296.5913278.7409053 1.4782753 1.1844839 2.425656 1.2131148.5177741.0302048 1.0343722-.0764864 1.4978426-.3093443.1326775-.0672531.2439785-.1701784.3213994-.2972131z" fill="#e2a799"/><path d="m43.9953353 9.69885246c-1.3098543.52163934-2.383207 3.05704914 1.431137 4.54311474.8004665 2.8629508 2.8925948 4.4036066 5.1060058 4.6098361 2.2134111.2062295 5.5790088-1.3465574 5.7063557-9.86262297-.5518367-3.70606558-1.2855976-3.76065574-1.2855976-3.76065574l-10.22414-.5095082z" fill="#fac6ba"/><path d="m44.9534694 12.664918s-1.5463557-.454918-2.1830904-4.79180325c-.6367347-4.33688524 1.5281633-7.78213114 6.7311953-7.85491803 5.2030321-.07278688 6.543207 1.48 6.8039651 2.40196721-.3759767 1.92885246-1.7828572 1.98344263-1.776793 3.36032787-1.7464723-.8552459-7.3254811-.58836065-8.2714869.4852459-1.0915452 1.2495082-1.7586006 4.07-1.3037901 6.3991803z" fill="#3e4656"/><path d="m53.7707289 5.53180328s1.5039067.49737705 2.0193586 5.19819672c.6427988-.0788525 2.3650145-5.1557377.2546938-7.36360656 0 0-1.7707288-.04852459-2.2740524 2.16540984z" fill="#14161b"/><path d="m44.2257726 23.5890164s3.1715452 1.9288525 6.3734111 1.9288525c3.2685714 0 6.5674635-1.9288525 6.5674635-1.9288525s9.3690962.867377 12.7468222 4.0518033c3.3777259 3.1844262 10.0300875 28.5081967.5760933 29.5272131-6.4704373-.1940984-13.7110204-6.9511476-13.7110204-6.9511476l-18.1499709 5.5985246s-13.8141108 7.7214754-13.3289796-2.6991803.5821575-21.6116393 5.6032653-25.3783606c5.0211079-3.7667214 13.3229155-4.1488525 13.3229155-4.1488525z" fill="#eeeff0"/><path d="m64.1161516 35.9385246c-1.2006997 2.6445902-.8793003 6.1686885.1940525 8.6859016.8135468 1.7544907 2.2639569 3.1336819 4.0569096 3.8577049 0 0-.4184257-1.8196721-1.5463557-5.9806557-1.2431487-4.5977049-2.1952186-7.685082-2.7046064-6.5629508zm-27.0339359 2.7052459c-.9217492 1.0978688-2.9107871 7.2604918-2.8986588 9.4562295.0060641.5701639 3.7658309-2.6081967 4.0569096-4.6340984.1446614-1.6903096-.2616829-3.3820376-1.1582508-4.8221311z" fill="#d9dcde"/><g fill="#cdd0d4"><path d="m48.6525948 102.320164 10.2544606 1.965246 1.1218659 1.067541h-26.6700875l.9338776-1.067541 10.8123615-1.965246.3759767-.606557v-32.1475414h-14.2507289c-.837283 0-1.516035-.6789125-1.516035-1.5163935 0-.8374809.678752-1.5163934 1.516035-1.5163934h32.7463557c.837283 0 1.516035.6789125 1.516035 1.5163934 0 .837481-.678752 1.5163935-1.516035 1.5163935h-15.4635569v32.1475414z"/><path d="m34.2805831 104.631148c.5872777-.004916 1.1194667.345151 1.3476218.886449.228155.541297.1071682 1.166806-.3063659 1.583929-.4135341.417122-1.0378565.54339-1.5809243.319737-.5430678-.223652-.8975122-.753006-.8975328-1.340443-.0006893-.796191.6412214-1.443671 1.4372012-1.449672zm12.9348105 0c.8004425 0 1.4493294.64904 1.4493294 1.449672 0 .800631-.6488869 1.449672-1.4493294 1.449672-.8004426 0-1.4493295-.649041-1.4493295-1.449672 0-.800632.6488869-1.449672 1.4493295-1.449672zm13.3289796 0c.5872777-.004916 1.1194667.345151 1.3476218.886449.228155.541297.1071681 1.166806-.3063659 1.583929-.4135341.417122-1.0378565.54339-1.5809243.319737-.5430678-.223652-.8975122-.753006-.8975328-1.340443-.0030209-.797148.6402449-1.445995 1.4372012-1.449672z"/><path d="m48.5131195 69.5660656v31.5409834m-3.0320699 0v-31.5409834"/></g><path d="m60.6413994 66.5332787s-20.5998834.2486885-20.6180758 0c-2.8258892 0-7.7317784-11.3547541 3.0441983-14.3814754 13.9172011-3.9122951 20.2178425-5.0647541 22.7890379 2.6991803 2.5711953 7.7639344 11.7644315 36.5511475 11.7644315 36.5511475l-4.244898 2.4262296z" fill="#47546b"/><path d="m47.3002915 66.5332787s4.329796-6.6357377 8.101691-7.0481967c-2.8016326 4.1913114-2.643965 7.0481967-2.643965 7.0481967z" fill="#2e3c56"/><path d="m47.3002915 102.320164 3.4929447-34.7314755s.4002332-9.99 7.3376093-8.6859016c5.9853061 1.1281967 2.3165014 10.6147541 2.3165014 10.6147541l-8.2957434 32.802623z" fill="#5d6d88"/><path d="m74.1583673 92.6698361c.6730587 1.1095913 1.2551002 2.271921 1.7404082 3.4755737.3638484 1.1645902 1.5039067 1.0978689 3.6142274-.1091803 3.4141108-1.9409836 5.2697376-3.1722951 5.2697376-3.1722951s1.2916618-2.0562295-1.7404081-1.5406557c-3.03207.5155738-5.5972012.9644262-5.5972012.9644262l-.5821574-1.1585246zm-25.8756851 9.4562299c.0000053.808558-.1999892 1.604557-.5821574 2.317049-.5942857.952295-1.8374344 3.281475.1940525 3.281475h4.2509621c1.3401749 0 1.4008163-1.971311-.388105-2.69918-1.0976093-.612623-.388105-2.899344-.388105-2.899344z" fill="#353e50"/><path d="m54.4620408 50.9932787c.8647476-.0585577 1.6914454-.377895 2.3710787-.9159017.5837263-.3683341 1.2166294-.6521867 1.8798834-.8431147l-.0060641-1.2859016s-2.5166181-1.067541-6.3370263.1577049c-2.0436151.8431147-2.3104373 1.7408196-1.5766763 1.9227869-.0727697.2547541.5033236.6429508.9641982.5762295-.0242566.2183606.9581341.37 1.1582507.1940983.2789505.3760656 1.3886881.200164 1.5463557.1940984z" fill="#f7b7b2"/><path d="m50.7932362 45.2006557c-.8835248.0343408-1.7150329-.4175472-2.1670048-1.1776717-.451972-.7601245-.451972-1.7066632 0-2.4667877.4519719-.7601245 1.28348-1.2120125 2.1670048-1.1776717v.7521311c-.6076686-.0232487-1.1793941.2877592-1.4901371.8106065-.3107429.5228473-.3107429 1.1738086 0 1.6966559.310743.5228473.8824685.8338553 1.4901371.8106065z" fill="#565d6d"/><rect fill="#959db0" fill-rule="nonzero" height="6.957213" rx="2" width="5.021108" x="50.411195" y="39.22"/><path d="m59.4285714 24.6808197c-2.2316035 1.0978688.4730029 3.2511475-2.2619242 4.3126229-3.1715452 1.2313115-5.4941108 2.505082-4.4086297 6.6054099.4148474 1.5001077-.370531 3.071236-1.819242 3.6393442h3.638484c6.719067-2.9842623 1.5706122-5.8290164 5.0999417-7.3514754 3.5293294-1.522459 7.6590087-1.0008197 10.0604081-4.1731147-2.9994884-2.1378543-6.6300116-3.2059077-10.3090379-3.0327869z" fill="url(#a)"/><path d="m44.5168513 45.267377c1.6312537-.2486885 2.0254228.3093443 4.0993586.0303279 1.3280467-.2729508 1.7889213-.4852459 1.7889213-2.4080328.0563093-.4229637-.0893938-.8478063-.3934181-1.1471324-.3040243-.299326-.7310169-.4383289-1.1529376-.3753266.4548105-.127377.9278134-.3821311.8793003-.7036065-.0545773-.4367214-.4669388-.5883607-1.6069971-.3639345-1.4807229.3745564-2.8520619 1.0936404-4.0023323 2.0986886 0 0 .3335277 2.4686885.3881049 2.8690163z" fill="#f7b7b2"/><rect fill="#f5f5f5" fill-rule="nonzero" height="1.934918" rx=".967459" width="208" y="108.877049"/></g><path d="m263 258h218v218h-218z"/><g transform="translate(321 282)"><path d="m0 34.6601423.10273982 134.7428237h113.55771318l-.042305-169.402966h-79.1700924z" fill="#e0e2e4"/><path d="m34.4480556 0 .1087833 34.7635147-34.5568389-.1033724z" fill="#eeeff0"/><path d="m41.3981019 118.574171h30.8219444c.8344358 0 1.5108796.680609 1.5108796 1.520182s-.6764438 1.520182-1.5108796 1.520182h-30.8219444c-.8344358 0-1.5108797-.680609-1.5108797-1.520182s.6764439-1.520182 1.5108797-1.520182zm-15.1087963 9.729163h61.6438888c.8344358 0 1.5108797.680608 1.5108797 1.520182 0 .839573-.6764439 1.520181-1.5108797 1.520181h-61.6438888c-.8344358 0-1.5108797-.680608-1.5108797-1.520181 0-.839574.6764439-1.520182 1.5108797-1.520182z" fill="#f4f6f8"/><path d="m58.0177778 37.7005057c2.9311065 5.4726541 9.7058907 18.1266464 9.7058907 18.1266464s13.7490046 2.4991787 19.9496546 3.6301938c3.0217593.5655076 1.1724426 2.5174209-.0060435 3.6666783-4.6535092 4.8828235-13.1204787 13.772846-13.1204787 13.772846s1.9157954 13.1647734 2.8102361 19.7866848c.4109593 2.5174208.3384371 3.1011706-3.0217592 1.824218-6.1039537-2.9552332-17.6410306-8.5859861-17.6410306-8.5859861s-12.1172546 5.8557398-17.9371629 8.6711163c-1.2630954.5472654-3.0217593 1.179661-2.6772787-1.3073563.8340055-6.1597762 2.7558444-20.3886767 2.7558444-20.3886767s-8.9806685-9.4251264-13.5253944-14.1984969c-1.0334417-1.0337236-2.4113639-2.669439.0302175-3.1741394 6.0072575-1.0945308 20.3183093-3.6970818 20.3183093-3.6970818s6.7808278-12.6600731 9.7119343-18.1266464c.6103953-1.2587104 2.0306222-1.2039839 2.6470611 0z" fill="#f4f6f8"/><g transform="translate(103.948519 134.600206)"><path d="m16.305413 9.74740494c-.8763102-.23714834-2.5261908 3.05860556-3.6805028 7.35159866-1.1543121 4.292993-1.3839658 7.965752-.5016121 8.1968196.8823538.2310676 2.5261908-3.0586056 3.6805028-7.3515986 1.1543121-4.2929931 1.3839658-7.95967131.5016121-8.19681966z" fill="#e0e2e4"/><path d="m.68896111 8.26978835c.97905-.22498689 2.81023611 2.92482955 4.09750556 7.03540085 1.28726944 4.1105712 1.5350537 7.6252313.5560037 7.8502182s-2.81023611-2.9248296-4.09750556-7.0354008c-1.28726944-4.1105713-1.5350537-7.62523136-.5560037-7.85021825z" fill="#ecedee"/><path d="m9.27680093.52902323c-1.8251426 0-3.29976112 2.03096272-3.29976112 8.94474901 0 6.91378626 1.47461852 16.09568366 3.29976112 16.09568366 1.82514257 0 3.29371757-9.1818974 3.29371757-16.09568366 0-6.91378629-1.4746185-8.94474901-3.29371757-8.94474901z" fill="#c0c3c7"/><path d="m3.86785185 23.8060451h9.87510925c.8224877-.0043804 1.4931363.6622345 1.4987926 1.4897781l-1.8009685 8.36708c.0000033.3977822-.1574607.7791841-.4375805 1.0598875-.2801199.2807034-.6598237.4375882-1.0551686.4359712h-6.28525925c-.39595115.0017776-.77636932-.1548621-1.05748308-.4354256-.28111377-.2805635-.43987012-.6620429-.44130951-1.0604331l-1.794925-8.36708c.00565629-.8275436.67630489-1.4941585 1.49879259-1.4897781z" fill="#ecedee"/></g></g><g transform="translate(268 344)"><path d="m48.4767347 17.802459s-.4911953 5.0404918-3.8628571 6.5568853c-.0828533.9646715-.0828533 1.9346727 0 2.8993442h11.9706122v-2.7052459c-2.4917555-1.3308049-4.0487279-3.9255953-4.0508455-6.7509836z" fill="#fac6ba"/><path d="m52.7580175 18.6152459c0 2.6688525-4.851312 3.0327869-4.851312 3.0327869.2839186-.5761556.4879373-1.1883563.606414-1.8196721.074808-.8070125.074808-1.6192171 0-2.4262296.5913278.7409053 1.4782753 1.1844839 2.425656 1.2131148.5177741.0302048 1.0343722-.0764864 1.4978426-.3093443.1326775-.0672531.2439785-.1701784.3213994-.2972131z" fill="#e2a799"/><path d="m43.9953353 9.69885246c-1.3098543.52163934-2.383207 3.05704914 1.431137 4.54311474.8004665 2.8629508 2.8925948 4.4036066 5.1060058 4.6098361 2.2134111.2062295 5.5790088-1.3465574 5.7063557-9.86262297-.5518367-3.70606558-1.2855976-3.76065574-1.2855976-3.76065574l-10.22414-.5095082z" fill="#fac6ba"/><path d="m44.9534694 12.664918s-1.5463557-.454918-2.1830904-4.79180325c-.6367347-4.33688524 1.5281633-7.78213114 6.7311953-7.85491803 5.2030321-.07278688 6.543207 1.48 6.8039651 2.40196721-.3759767 1.92885246-1.7828572 1.98344263-1.776793 3.36032787-1.7464723-.8552459-7.3254811-.58836065-8.2714869.4852459-1.0915452 1.2495082-1.7586006 4.07-1.3037901 6.3991803z" fill="#3e4656"/><path d="m53.7707289 5.53180328s1.5039067.49737705 2.0193586 5.19819672c.6427988-.0788525 2.3650145-5.1557377.2546938-7.36360656 0 0-1.7707288-.04852459-2.2740524 2.16540984z" fill="#14161b"/><path d="m44.2257726 23.5890164s3.1715452 1.9288525 6.3734111 1.9288525c3.2685714 0 6.5674635-1.9288525 6.5674635-1.9288525s9.3690962.867377 12.7468222 4.0518033c3.3777259 3.1844262 10.0300875 28.5081967.5760933 29.5272131-6.4704373-.1940984-13.7110204-6.9511476-13.7110204-6.9511476l-18.1499709 5.5985246s-13.8141108 7.7214754-13.3289796-2.6991803.5821575-21.6116393 5.6032653-25.3783606c5.0211079-3.7667214 13.3229155-4.1488525 13.3229155-4.1488525z" fill="#eeeff0"/><path d="m64.1161516 35.9385246c-1.2006997 2.6445902-.8793003 6.1686885.1940525 8.6859016.8135468 1.7544907 2.2639569 3.1336819 4.0569096 3.8577049 0 0-.4184257-1.8196721-1.5463557-5.9806557-1.2431487-4.5977049-2.1952186-7.685082-2.7046064-6.5629508zm-27.0339359 2.7052459c-.9217492 1.0978688-2.9107871 7.2604918-2.8986588 9.4562295.0060641.5701639 3.7658309-2.6081967 4.0569096-4.6340984.1446614-1.6903096-.2616829-3.3820376-1.1582508-4.8221311z" fill="#d9dcde"/><g fill="#cdd0d4"><path d="m48.6525948 102.320164 10.2544606 1.965246 1.1218659 1.067541h-26.6700875l.9338776-1.067541 10.8123615-1.965246.3759767-.606557v-32.1475414h-14.2507289c-.837283 0-1.516035-.6789125-1.516035-1.5163935 0-.8374809.678752-1.5163934 1.516035-1.5163934h32.7463557c.837283 0 1.516035.6789125 1.516035 1.5163934 0 .837481-.678752 1.5163935-1.516035 1.5163935h-15.4635569v32.1475414z"/><path d="m34.2805831 104.631148c.5872777-.004916 1.1194667.345151 1.3476218.886449.228155.541297.1071682 1.166806-.3063659 1.583929-.4135341.417122-1.0378565.54339-1.5809243.319737-.5430678-.223652-.8975122-.753006-.8975328-1.340443-.0006893-.796191.6412214-1.443671 1.4372012-1.449672zm12.9348105 0c.8004425 0 1.4493294.64904 1.4493294 1.449672 0 .800631-.6488869 1.449672-1.4493294 1.449672-.8004426 0-1.4493295-.649041-1.4493295-1.449672 0-.800632.6488869-1.449672 1.4493295-1.449672zm13.3289796 0c.5872777-.004916 1.1194667.345151 1.3476218.886449.228155.541297.1071681 1.166806-.3063659 1.583929-.4135341.417122-1.0378565.54339-1.5809243.319737-.5430678-.223652-.8975122-.753006-.8975328-1.340443-.0030209-.797148.6402449-1.445995 1.4372012-1.449672z"/><path d="m48.5131195 69.5660656v31.5409834m-3.0320699 0v-31.5409834"/></g><path d="m60.6413994 66.5332787s-20.5998834.2486885-20.6180758 0c-2.8258892 0-7.7317784-11.3547541 3.0441983-14.3814754 13.9172011-3.9122951 20.2178425-5.0647541 22.7890379 2.6991803 2.5711953 7.7639344 11.7644315 36.5511475 11.7644315 36.5511475l-4.244898 2.4262296z" fill="#47546b"/><path d="m47.3002915 66.5332787s4.329796-6.6357377 8.101691-7.0481967c-2.8016326 4.1913114-2.643965 7.0481967-2.643965 7.0481967z" fill="#2e3c56"/><path d="m47.3002915 102.320164 3.4929447-34.7314755s.4002332-9.99 7.3376093-8.6859016c5.9853061 1.1281967 2.3165014 10.6147541 2.3165014 10.6147541l-8.2957434 32.802623z" fill="#5d6d88"/><path d="m74.1583673 92.6698361c.6730587 1.1095913 1.2551002 2.271921 1.7404082 3.4755737.3638484 1.1645902 1.5039067 1.0978689 3.6142274-.1091803 3.4141108-1.9409836 5.2697376-3.1722951 5.2697376-3.1722951s1.2916618-2.0562295-1.7404081-1.5406557c-3.03207.5155738-5.5972012.9644262-5.5972012.9644262l-.5821574-1.1585246zm-25.8756851 9.4562299c.0000053.808558-.1999892 1.604557-.5821574 2.317049-.5942857.952295-1.8374344 3.281475.1940525 3.281475h4.2509621c1.3401749 0 1.4008163-1.971311-.388105-2.69918-1.0976093-.612623-.388105-2.899344-.388105-2.899344z" fill="#353e50"/><path d="m54.4620408 50.9932787c.8647476-.0585577 1.6914454-.377895 2.3710787-.9159017.5837263-.3683341 1.2166294-.6521867 1.8798834-.8431147l-.0060641-1.2859016s-2.5166181-1.067541-6.3370263.1577049c-2.0436151.8431147-2.3104373 1.7408196-1.5766763 1.9227869-.0727697.2547541.5033236.6429508.9641982.5762295-.0242566.2183606.9581341.37 1.1582507.1940983.2789505.3760656 1.3886881.200164 1.5463557.1940984z" fill="#f7b7b2"/><path d="m50.7932362 45.2006557c-.8835248.0343408-1.7150329-.4175472-2.1670048-1.1776717-.451972-.7601245-.451972-1.7066632 0-2.4667877.4519719-.7601245 1.28348-1.2120125 2.1670048-1.1776717v.7521311c-.6076686-.0232487-1.1793941.2877592-1.4901371.8106065-.3107429.5228473-.3107429 1.1738086 0 1.6966559.310743.5228473.8824685.8338553 1.4901371.8106065z" fill="#565d6d"/><rect fill="#959db0" fill-rule="nonzero" height="6.957213" rx="2" width="5.021108" x="50.411195" y="39.22"/><path d="m59.4285714 24.6808197c-2.2316035 1.0978688.4730029 3.2511475-2.2619242 4.3126229-3.1715452 1.2313115-5.4941108 2.505082-4.4086297 6.6054099.4148474 1.5001077-.370531 3.071236-1.819242 3.6393442h3.638484c6.719067-2.9842623 1.5706122-5.8290164 5.0999417-7.3514754 3.5293294-1.522459 7.6590087-1.0008197 10.0604081-4.1731147-2.9994884-2.1378543-6.6300116-3.2059077-10.3090379-3.0327869z" fill="url(#a)"/><path d="m44.5168513 45.267377c1.6312537-.2486885 2.0254228.3093443 4.0993586.0303279 1.3280467-.2729508 1.7889213-.4852459 1.7889213-2.4080328.0563093-.4229637-.0893938-.8478063-.3934181-1.1471324-.3040243-.299326-.7310169-.4383289-1.1529376-.3753266.4548105-.127377.9278134-.3821311.8793003-.7036065-.0545773-.4367214-.4669388-.5883607-1.6069971-.3639345-1.4807229.3745564-2.8520619 1.0936404-4.0023323 2.0986886 0 0 .3335277 2.4686885.3881049 2.8690163z" fill="#f7b7b2"/><rect fill="#f5f5f5" fill-rule="nonzero" height="1.934918" rx=".967459" width="208" y="108.877049"/></g><path d="m531 258h218v218h-218z"/><g transform="translate(585 286)"><g fill-rule="nonzero"><rect fill="#e0e2e4" height="160.531225" rx="4" width="117.679531" y="3.621005"/><g fill="#f4f6f8"><rect height="19.312027" rx="4" width="105.547621" x="6.065955" y="12.070017"/><path d="m0 0h117.679531v6.035008h-117.679531z"/></g></g><path d="m3.63957314 1.81050254c.67002691 0 1.21319104.54039307 1.21319104 1.20700169 0 .66660863-.54316413 1.2070017-1.21319104 1.2070017-.67002692 0-1.21319105-.54039307-1.21319105-1.2070017.00199861-.66578326.54399373-1.20501327 1.21319105-1.20700169zm4.85276418 0c.67002691 0 1.21319104.54039307 1.21319104 1.20700169 0 .66660863-.54316413 1.2070017-1.21319104 1.2070017s-1.21319105-.54039307-1.21319105-1.2070017c.00199861-.66578326.54399374-1.20501327 1.21319105-1.20700169zm4.85276418 0c.6700269 0 1.213191.54039307 1.213191 1.20700169 0 .66660863-.5431641 1.2070017-1.213191 1.2070017s-1.213191-.54039307-1.213191-1.2070017c.0019986-.66578326.5439937-1.20501327 1.213191-1.20700169z" fill="#c0c3c7"/><path d="m10.3121239 37.4170525c2.3450942 0 4.2461686 1.8913757 4.2461686 4.2245059s-1.9010744 4.224506-4.2461686 4.224506c-2.34509421 0-4.24616867-1.8913758-4.24616867-4.224506-.00080544-1.1206541.44629882-2.1956393 1.24278458-2.9880616s1.87698341-1.2372456 3.00338409-1.2364443zm14.5582925 0c2.3450942 0 4.2461687 1.8913757 4.2461687 4.2245059s-1.9010745 4.224506-4.2461687 4.224506-4.2461686-1.8913758-4.2461686-4.224506c-.0008055-1.1206541.4462988-2.1956393 1.2427846-2.9880616.7964857-.7924223 1.8769834-1.2372456 3.003384-1.2364443z" fill="#f4f6f8"/><rect fill="#f4f6f8" fill-rule="nonzero" height="8.449012" rx="4.224506" width="26.690203" x="84.923373" y="37.417053"/><path d="m26.3869052 98.3706381h30.9363717c.8375336 0 1.5164888.6754913 1.5164888 1.5087521s-.6789552 1.5087518-1.5164888 1.5087518h-30.9363717c-.8375336 0-1.5164888-.675491-1.5164888-1.5087518s.6789552-1.5087521 1.5164888-1.5087521zm0 8.4490119h61.8727434c.8375336 0 1.5164888.675491 1.5164888 1.508752s-.6789552 1.508752-1.5164888 1.508752h-61.8727434c-.8375336 0-1.5164888-.675491-1.5164888-1.508752s.6789552-1.508752 1.5164888-1.508752zm31.5429672-41.6415585h30.9363717c.8375336 0 1.5164888.6754913 1.5164888 1.5087521s-.6789552 1.5087521-1.5164888 1.5087521h-30.9363717c-.8375336 0-1.5164888-.6754913-1.5164888-1.5087521s.6789552-1.5087521 1.5164888-1.5087521zm-30.9363716 8.4490118h61.8727433c.8375336 0 1.5164888.6754914 1.5164888 1.5087521 0 .8332608-.6789552 1.5087522-1.5164888 1.5087522h-61.8727433c-.8375337 0-1.5164888-.6754914-1.5164888-1.5087522 0-.8332607.6789551-1.5087521 1.5164888-1.5087521zm30.9363716 57.9360817h30.9363717c.8375336 0 1.5164888.675491 1.5164888 1.508752s-.6789552 1.508752-1.5164888 1.508752h-30.9363717c-.8375336 0-1.5164888-.675491-1.5164888-1.508752s.6789552-1.508752 1.5164888-1.508752zm-30.9363716 8.449011h61.8727433c.8375336 0 1.5164888.675492 1.5164888 1.508753 0 .83326-.6789552 1.508752-1.5164888 1.508752h-61.8727433c-.8375337 0-1.5164888-.675492-1.5164888-1.508752 0-.833261.6789551-1.508753 1.5164888-1.508753zm77.3409292-76.6446071c4.020161 0 7.279146 3.2423584 7.279146 7.2420102s-3.258985 7.2420102-7.279146 7.2420102c-4.020162 0-7.2791464-3.2423584-7.2791464-7.2420102s3.2589844-7.2420102 7.2791464-7.2420102zm0 66.3850931c4.020161 0 7.279146 3.242358 7.279146 7.24201s-3.258985 7.24201-7.279146 7.24201c-4.020162 0-7.2791464-3.242358-7.2791464-7.24201s3.2589844-7.24201 7.2791464-7.24201z" fill="#f1f2f2"/><ellipse cx="13.345102" cy="107.423151" fill="#eaecee" fill-rule="nonzero" rx="7.279146" ry="7.24201"/><g transform="translate(107.974003 130.959684)"><path d="m16.3659472 9.67411858c-.8795635-.23536533-2.5355693 3.03560922-3.6941667 7.29632522-1.1585975 4.260716-1.3891038 7.9058611-.5034743 8.1351914.8856294.2293304 2.5355693-3.0356092 3.6941667-7.2963252 1.1585975-4.260716 1.3891038-7.89982609.5034743-8.13519142z" fill="#e0e2e4"/><path d="m.6915189 8.20761152c.98268474-.22329531 2.82066918 2.90283908 4.11271764 6.98250478s1.54075263 7.5679006.55806788 7.791196c-.98268475.2232953-2.82066918-2.9028391-4.11271764-6.9825048-1.29204847-4.0796658-1.54075263-7.56790067-.55806788-7.79119598z" fill="#ecedee"/><path d="m9.31124127.52504574c-1.83191847 0-3.31201155 2.01569283-3.31201155 8.87749746 0 6.8618046 1.48009308 15.9746674 3.31201155 15.9746674 1.83191853 0 3.30594563-9.1128628 3.30594563-15.9746674 0-6.86180463-1.4800931-8.87749746-3.30594563-8.87749746z" fill="#c0c3c7"/><path d="m3.88221135 23.6270582h9.91177085c.8255412-.0043476 1.4986796.6572554 1.5043569 1.478577l-1.8076547 8.3041717c.0000033.3947915-.1580452.7733258-.439205 1.0519187s-.6622733.4342982-1.0590859.4326934h-6.30859345c-.39742113.0017642-.77925162-.1536978-1.06140902-.4321519-.2821574-.278454-.44150314-.6570653-.44294788-1.0524602l-1.8015887-8.3041717c.00567729-.8213216.67881568-1.4829246 1.5043569-1.478577z" fill="#ecedee"/></g></g><g transform="translate(536 344)"><path d="m48.4767347 17.802459s-.4911953 5.0404918-3.8628571 6.5568853c-.0828533.9646715-.0828533 1.9346727 0 2.8993442h11.9706122v-2.7052459c-2.4917555-1.3308049-4.0487279-3.9255953-4.0508455-6.7509836z" fill="#fac6ba"/><path d="m52.7580175 18.6152459c0 2.6688525-4.851312 3.0327869-4.851312 3.0327869.2839186-.5761556.4879373-1.1883563.606414-1.8196721.074808-.8070125.074808-1.6192171 0-2.4262296.5913278.7409053 1.4782753 1.1844839 2.425656 1.2131148.5177741.0302048 1.0343722-.0764864 1.4978426-.3093443.1326775-.0672531.2439785-.1701784.3213994-.2972131z" fill="#e2a799"/><path d="m43.9953353 9.69885246c-1.3098543.52163934-2.383207 3.05704914 1.431137 4.54311474.8004665 2.8629508 2.8925948 4.4036066 5.1060058 4.6098361 2.2134111.2062295 5.5790088-1.3465574 5.7063557-9.86262297-.5518367-3.70606558-1.2855976-3.76065574-1.2855976-3.76065574l-10.22414-.5095082z" fill="#fac6ba"/><path d="m44.9534694 12.664918s-1.5463557-.454918-2.1830904-4.79180325c-.6367347-4.33688524 1.5281633-7.78213114 6.7311953-7.85491803 5.2030321-.07278688 6.543207 1.48 6.8039651 2.40196721-.3759767 1.92885246-1.7828572 1.98344263-1.776793 3.36032787-1.7464723-.8552459-7.3254811-.58836065-8.2714869.4852459-1.0915452 1.2495082-1.7586006 4.07-1.3037901 6.3991803z" fill="#3e4656"/><path d="m53.7707289 5.53180328s1.5039067.49737705 2.0193586 5.19819672c.6427988-.0788525 2.3650145-5.1557377.2546938-7.36360656 0 0-1.7707288-.04852459-2.2740524 2.16540984z" fill="#14161b"/><path d="m44.2257726 23.5890164s3.1715452 1.9288525 6.3734111 1.9288525c3.2685714 0 6.5674635-1.9288525 6.5674635-1.9288525s9.3690962.867377 12.7468222 4.0518033c3.3777259 3.1844262 10.0300875 28.5081967.5760933 29.5272131-6.4704373-.1940984-13.7110204-6.9511476-13.7110204-6.9511476l-18.1499709 5.5985246s-13.8141108 7.7214754-13.3289796-2.6991803.5821575-21.6116393 5.6032653-25.3783606c5.0211079-3.7667214 13.3229155-4.1488525 13.3229155-4.1488525z" fill="#eeeff0"/><path d="m64.1161516 35.9385246c-1.2006997 2.6445902-.8793003 6.1686885.1940525 8.6859016.8135468 1.7544907 2.2639569 3.1336819 4.0569096 3.8577049 0 0-.4184257-1.8196721-1.5463557-5.9806557-1.2431487-4.5977049-2.1952186-7.685082-2.7046064-6.5629508zm-27.0339359 2.7052459c-.9217492 1.0978688-2.9107871 7.2604918-2.8986588 9.4562295.0060641.5701639 3.7658309-2.6081967 4.0569096-4.6340984.1446614-1.6903096-.2616829-3.3820376-1.1582508-4.8221311z" fill="#d9dcde"/><g fill="#cdd0d4"><path d="m48.6525948 102.320164 10.2544606 1.965246 1.1218659 1.067541h-26.6700875l.9338776-1.067541 10.8123615-1.965246.3759767-.606557v-32.1475414h-14.2507289c-.837283 0-1.516035-.6789125-1.516035-1.5163935 0-.8374809.678752-1.5163934 1.516035-1.5163934h32.7463557c.837283 0 1.516035.6789125 1.516035 1.5163934 0 .837481-.678752 1.5163935-1.516035 1.5163935h-15.4635569v32.1475414z"/><path d="m34.2805831 104.631148c.5872777-.004916 1.1194667.345151 1.3476218.886449.228155.541297.1071682 1.166806-.3063659 1.583929-.4135341.417122-1.0378565.54339-1.5809243.319737-.5430678-.223652-.8975122-.753006-.8975328-1.340443-.0006893-.796191.6412214-1.443671 1.4372012-1.449672zm12.9348105 0c.8004425 0 1.4493294.64904 1.4493294 1.449672 0 .800631-.6488869 1.449672-1.4493294 1.449672-.8004426 0-1.4493295-.649041-1.4493295-1.449672 0-.800632.6488869-1.449672 1.4493295-1.449672zm13.3289796 0c.5872777-.004916 1.1194667.345151 1.3476218.886449.228155.541297.1071681 1.166806-.3063659 1.583929-.4135341.417122-1.0378565.54339-1.5809243.319737-.5430678-.223652-.8975122-.753006-.8975328-1.340443-.0030209-.797148.6402449-1.445995 1.4372012-1.449672z"/><path d="m48.5131195 69.5660656v31.5409834m-3.0320699 0v-31.5409834"/></g><path d="m60.6413994 66.5332787s-20.5998834.2486885-20.6180758 0c-2.8258892 0-7.7317784-11.3547541 3.0441983-14.3814754 13.9172011-3.9122951 20.2178425-5.0647541 22.7890379 2.6991803 2.5711953 7.7639344 11.7644315 36.5511475 11.7644315 36.5511475l-4.244898 2.4262296z" fill="#47546b"/><path d="m47.3002915 66.5332787s4.329796-6.6357377 8.101691-7.0481967c-2.8016326 4.1913114-2.643965 7.0481967-2.643965 7.0481967z" fill="#2e3c56"/><path d="m47.3002915 102.320164 3.4929447-34.7314755s.4002332-9.99 7.3376093-8.6859016c5.9853061 1.1281967 2.3165014 10.6147541 2.3165014 10.6147541l-8.2957434 32.802623z" fill="#5d6d88"/><path d="m74.1583673 92.6698361c.6730587 1.1095913 1.2551002 2.271921 1.7404082 3.4755737.3638484 1.1645902 1.5039067 1.0978689 3.6142274-.1091803 3.4141108-1.9409836 5.2697376-3.1722951 5.2697376-3.1722951s1.2916618-2.0562295-1.7404081-1.5406557c-3.03207.5155738-5.5972012.9644262-5.5972012.9644262l-.5821574-1.1585246zm-25.8756851 9.4562299c.0000053.808558-.1999892 1.604557-.5821574 2.317049-.5942857.952295-1.8374344 3.281475.1940525 3.281475h4.2509621c1.3401749 0 1.4008163-1.971311-.388105-2.69918-1.0976093-.612623-.388105-2.899344-.388105-2.899344z" fill="#353e50"/><path d="m54.4620408 50.9932787c.8647476-.0585577 1.6914454-.377895 2.3710787-.9159017.5837263-.3683341 1.2166294-.6521867 1.8798834-.8431147l-.0060641-1.2859016s-2.5166181-1.067541-6.3370263.1577049c-2.0436151.8431147-2.3104373 1.7408196-1.5766763 1.9227869-.0727697.2547541.5033236.6429508.9641982.5762295-.0242566.2183606.9581341.37 1.1582507.1940983.2789505.3760656 1.3886881.200164 1.5463557.1940984z" fill="#f7b7b2"/><path d="m50.7932362 45.2006557c-.8835248.0343408-1.7150329-.4175472-2.1670048-1.1776717-.451972-.7601245-.451972-1.7066632 0-2.4667877.4519719-.7601245 1.28348-1.2120125 2.1670048-1.1776717v.7521311c-.6076686-.0232487-1.1793941.2877592-1.4901371.8106065-.3107429.5228473-.3107429 1.1738086 0 1.6966559.310743.5228473.8824685.8338553 1.4901371.8106065z" fill="#565d6d"/><rect fill="#959db0" fill-rule="nonzero" height="6.957213" rx="2" width="5.021108" x="50.411195" y="39.22"/><path d="m59.4285714 24.6808197c-2.2316035 1.0978688.4730029 3.2511475-2.2619242 4.3126229-3.1715452 1.2313115-5.4941108 2.505082-4.4086297 6.6054099.4148474 1.5001077-.370531 3.071236-1.819242 3.6393442h3.638484c6.719067-2.9842623 1.5706122-5.8290164 5.0999417-7.3514754 3.5293294-1.522459 7.6590087-1.0008197 10.0604081-4.1731147-2.9994884-2.1378543-6.6300116-3.2059077-10.3090379-3.0327869z" fill="url(#a)"/><path d="m44.5168513 45.267377c1.6312537-.2486885 2.0254228.3093443 4.0993586.0303279 1.3280467-.2729508 1.7889213-.4852459 1.7889213-2.4080328.0563093-.4229637-.0893938-.8478063-.3934181-1.1471324-.3040243-.299326-.7310169-.4383289-1.1529376-.3753266.4548105-.127377.9278134-.3821311.8793003-.7036065-.0545773-.4367214-.4669388-.5883607-1.6069971-.3639345-1.4807229.3745564-2.8520619 1.0936404-4.0023323 2.0986886 0 0 .3335277 2.4686885.3881049 2.8690163z" fill="#f7b7b2"/><rect fill="#f5f5f5" fill-rule="nonzero" height="1.934918" rx=".967459" width="208" y="108.877049"/></g><path d="m531-10h218v218h-218z"/><rect fill="#f2f3f4" fill-rule="nonzero" height="55.073443" rx="5" width="120.03823" x="583.357059" y="126.92045"/><rect fill="#f2f3f4" fill-rule="nonzero" height="55.073443" rx="5" width="120.03823" x="595.460737" y="25"/><g fill="#fdfdfd" transform="translate(595.103678 25)"><path d="m98.9475706 17.7086782c5.1806244 0 9.3803504 4.2100343 9.3803504 9.4033748 0 5.1933406-4.199726 9.4033749-9.3803504 9.4033749-5.1806246 0-9.3803507-4.2100343-9.3803507-9.4033749 0-5.1933405 4.1997261-9.4033748 9.3803507-9.4033748zm-56.8872883 3.0333467h39.9421386c.8355847 0 1.5129598.6790378 1.5129598 1.5166734 0 .8376355-.6773751 1.5166733-1.5129598 1.5166733h-39.9421386c-.8355846 0-1.5129598-.6790378-1.5129598-1.5166733 0-.8376356.6773752-1.5166734 1.5129598-1.5166734zm-18.1555175 10.3133789h58.0976561c.8355847 0 1.5129598.6790378 1.5129598 1.5166733 0 .8376356-.6773751 1.5166734-1.5129598 1.5166734h-58.0976561c-.8355846 0-1.5129598-.6790378-1.5129598-1.5166734 0-.8376355.6773752-1.5166733 1.5129598-1.5166733z"/><path d="m85.6335244 120.235798c5.1806247 0 9.3803508 4.210034 9.3803508 9.403374 0 5.193341-4.1997261 9.403375-9.3803508 9.403375-5.1806246 0-9.3803507-4.210034-9.3803507-9.403375 0-5.19334 4.1997261-9.403374 9.3803507-9.403374zm-56.8872883 3.033346h39.9421386c.8355847 0 1.5129598.679038 1.5129598 1.516674 0 .837635-.6773751 1.516673-1.5129598 1.516673h-39.9421386c-.8355846 0-1.5129598-.679038-1.5129598-1.516673 0-.837636.6773752-1.516674 1.5129598-1.516674zm-18.1555175 10.313379h58.0976561c.8355847 0 1.5129598.679038 1.5129598 1.516673 0 .837636-.6773751 1.516674-1.5129598 1.516674h-58.0976561c-.83558465 0-1.51295983-.679038-1.51295983-1.516674 0-.837635.67737518-1.516673 1.51295983-1.516673z"/></g><g transform="translate(608.417725 76.566894)"><rect fill="#e0e2e4" fill-rule="nonzero" height="55.055243" rx="5" width="115.021256" x=".435732" y=".345802"/><path d="m22.089213 18.3153475c5.1806247 0 9.3803508 4.2100344 9.3803508 9.4033749s-4.1997261 9.4033748-9.3803508 9.4033748c-5.1806246 0-9.3803507-4.2100343-9.3803507-9.4033748s4.1997261-9.4033749 9.3803507-9.4033749zm16.9451497 3.0333468h39.9421386c.8355847 0 1.5129598.6790377 1.5129598 1.5166733s-.6773751 1.5166734-1.5129598 1.5166734h-39.9421386c-.8355846 0-1.5129598-.6790378-1.5129598-1.5166734s.6773752-1.5166733 1.5129598-1.5166733zm0 10.3133788h58.0976562c.8355846 0 1.5129598.6790378 1.5129598 1.5166734s-.6773752 1.5166733-1.5129598 1.5166733h-58.0976562c-.8355846 0-1.5129598-.6790377-1.5129598-1.5166733s.6773752-1.5166734 1.5129598-1.5166734z" fill="#f4f4f4"/></g><g transform="translate(693.748657 148.760546)"><path d="m16.8362166 9.71277622c-.8775167-.23660105-2.5357206 3.06368018-3.6976737 7.36496588-1.1619532 4.3012856-1.3858712 7.9837685-.5023027 8.2203696.8835685.236601 2.5357206-3.0636802 3.6976738-7.3649659 1.1619531-4.3012856 1.3858711-7.98376854.5023026-8.22036958z" fill="#e0e2e4"/><path d="m1.14984944 8.23250301c.98039795-.22446765 2.8262089 2.93021299 4.11525065 7.04949779 1.28904175 4.1192849 1.54321899 7.6440338.56282104 7.8745681-.98039794.2305344-2.8262089-2.9362796-4.11525064-7.0555645-1.28904175-4.1192848-1.54321899-7.64403373-.56282105-7.86850139z" fill="#e4e4e4"/><path d="m9.77372028.47320209c-1.82765543 0-3.31035603 2.03234231-3.31035603 8.96657292 0 6.93423059 1.4827006 16.13133789 3.31035603 16.13133789 1.82765542 0 3.31035602-9.203174 3.31035602-16.13133789 0-6.92816392-1.4827006-8.96657292-3.31035602-8.96657292z" fill="#c0c3c7"/><path d="m4.34522053 23.7996384h9.91896447c.8269542-.0010073 1.4985197.669492 1.5008561 1.4984733l-1.8034481 8.390237c-.0014414.3974709-.1604163.7780699-.4419171 1.0579859s-.6624427.4361942-1.058939.4344207h-6.31206829c-.3974446.0030675-.7797572-.1525999-1.06249941-.4326212s-.44265099-.6613573-.44440855-1.0597854l-1.80344807-8.390237c.00160181-.3990298.16126555-.7810782.44386631-1.0620971.28260077-.281019.66498887-.4379884 1.06304164-.4363762z" fill="#ecedee"/></g><g transform="translate(642.308024 100.833668)"><path d="m26.3133968 34.1676175 2.5901871-1.4984733s1.694515 2.9484131 2.7354313 4.750221l.7262208-.455002c.0977841-.0568567.2141809-.0721776.3232926-.042554.1091116.0296236.2018869.1017344.2576839.200288l8.4362638 14.6328646c.765395 1.3318405.308844 3.0335088-1.0197353 3.8007828-1.3285792.767274-3.0260811.3096029-3.7914768-1.0222372l-8.430212-14.6328646c-.0567174-.0980242-.0720009-.2147067-.0424498-.3240861.0295511-.1093795.1014853-.2023825.1997976-.2583164 0 0 .3086438-.1759342.7564799-.436802z" fill="#c0c3c7"/><g fill-rule="nonzero"><ellipse cx="18.760702" cy="18.922017" fill="#c0c3c7" rx="18.760702" ry="18.80675"/><ellipse cx="18.760702" cy="18.922017" fill="#edeeef" rx="15.129598" ry="15.166734"/></g></g><g transform="translate(536 76)"><path d="m48.4767347 17.802459s-.4911953 5.0404918-3.8628571 6.5568853c-.0828533.9646715-.0828533 1.9346727 0 2.8993442h11.9706122v-2.7052459c-2.4917555-1.3308049-4.0487279-3.9255953-4.0508455-6.7509836z" fill="#fac6ba"/><path d="m52.7580175 18.6152459c0 2.6688525-4.851312 3.0327869-4.851312 3.0327869.2839186-.5761556.4879373-1.1883563.606414-1.8196721.074808-.8070125.074808-1.6192171 0-2.4262296.5913278.7409053 1.4782753 1.1844839 2.425656 1.2131148.5177741.0302048 1.0343722-.0764864 1.4978426-.3093443.1326775-.0672531.2439785-.1701784.3213994-.2972131z" fill="#e2a799"/><path d="m43.9953353 9.69885246c-1.3098543.52163934-2.383207 3.05704914 1.431137 4.54311474.8004665 2.8629508 2.8925948 4.4036066 5.1060058 4.6098361 2.2134111.2062295 5.5790088-1.3465574 5.7063557-9.86262297-.5518367-3.70606558-1.2855976-3.76065574-1.2855976-3.76065574l-10.22414-.5095082z" fill="#fac6ba"/><path d="m44.9534694 12.664918s-1.5463557-.454918-2.1830904-4.79180325c-.6367347-4.33688524 1.5281633-7.78213114 6.7311953-7.85491803 5.2030321-.07278688 6.543207 1.48 6.8039651 2.40196721-.3759767 1.92885246-1.7828572 1.98344263-1.776793 3.36032787-1.7464723-.8552459-7.3254811-.58836065-8.2714869.4852459-1.0915452 1.2495082-1.7586006 4.07-1.3037901 6.3991803z" fill="#3e4656"/><path d="m53.7707289 5.53180328s1.5039067.49737705 2.0193586 5.19819672c.6427988-.0788525 2.3650145-5.1557377.2546938-7.36360656 0 0-1.7707288-.04852459-2.2740524 2.16540984z" fill="#14161b"/><path d="m44.2257726 23.5890164s3.1715452 1.9288525 6.3734111 1.9288525c3.2685714 0 6.5674635-1.9288525 6.5674635-1.9288525s9.3690962.867377 12.7468222 4.0518033c3.3777259 3.1844262 10.0300875 28.5081967.5760933 29.5272131-6.4704373-.1940984-13.7110204-6.9511476-13.7110204-6.9511476l-18.1499709 5.5985246s-13.8141108 7.7214754-13.3289796-2.6991803.5821575-21.6116393 5.6032653-25.3783606c5.0211079-3.7667214 13.3229155-4.1488525 13.3229155-4.1488525z" fill="#eeeff0"/><path d="m64.1161516 35.9385246c-1.2006997 2.6445902-.8793003 6.1686885.1940525 8.6859016.8135468 1.7544907 2.2639569 3.1336819 4.0569096 3.8577049 0 0-.4184257-1.8196721-1.5463557-5.9806557-1.2431487-4.5977049-2.1952186-7.685082-2.7046064-6.5629508zm-27.0339359 2.7052459c-.9217492 1.0978688-2.9107871 7.2604918-2.8986588 9.4562295.0060641.5701639 3.7658309-2.6081967 4.0569096-4.6340984.1446614-1.6903096-.2616829-3.3820376-1.1582508-4.8221311z" fill="#d9dcde"/><g fill="#cdd0d4"><path d="m48.6525948 102.320164 10.2544606 1.965246 1.1218659 1.067541h-26.6700875l.9338776-1.067541 10.8123615-1.965246.3759767-.606557v-32.1475414h-14.2507289c-.837283 0-1.516035-.6789125-1.516035-1.5163935 0-.8374809.678752-1.5163934 1.516035-1.5163934h32.7463557c.837283 0 1.516035.6789125 1.516035 1.5163934 0 .837481-.678752 1.5163935-1.516035 1.5163935h-15.4635569v32.1475414z"/><path d="m34.2805831 104.631148c.5872777-.004916 1.1194667.345151 1.3476218.886449.228155.541297.1071682 1.166806-.3063659 1.583929-.4135341.417122-1.0378565.54339-1.5809243.319737-.5430678-.223652-.8975122-.753006-.8975328-1.340443-.0006893-.796191.6412214-1.443671 1.4372012-1.449672zm12.9348105 0c.8004425 0 1.4493294.64904 1.4493294 1.449672 0 .800631-.6488869 1.449672-1.4493294 1.449672-.8004426 0-1.4493295-.649041-1.4493295-1.449672 0-.800632.6488869-1.449672 1.4493295-1.449672zm13.3289796 0c.5872777-.004916 1.1194667.345151 1.3476218.886449.228155.541297.1071681 1.166806-.3063659 1.583929-.4135341.417122-1.0378565.54339-1.5809243.319737-.5430678-.223652-.8975122-.753006-.8975328-1.340443-.0030209-.797148.6402449-1.445995 1.4372012-1.449672z"/><path d="m48.5131195 69.5660656v31.5409834m-3.0320699 0v-31.5409834"/></g><path d="m60.6413994 66.5332787s-20.5998834.2486885-20.6180758 0c-2.8258892 0-7.7317784-11.3547541 3.0441983-14.3814754 13.9172011-3.9122951 20.2178425-5.0647541 22.7890379 2.6991803 2.5711953 7.7639344 11.7644315 36.5511475 11.7644315 36.5511475l-4.244898 2.4262296z" fill="#47546b"/><path d="m47.3002915 66.5332787s4.329796-6.6357377 8.101691-7.0481967c-2.8016326 4.1913114-2.643965 7.0481967-2.643965 7.0481967z" fill="#2e3c56"/><path d="m47.3002915 102.320164 3.4929447-34.7314755s.4002332-9.99 7.3376093-8.6859016c5.9853061 1.1281967 2.3165014 10.6147541 2.3165014 10.6147541l-8.2957434 32.802623z" fill="#5d6d88"/><path d="m74.1583673 92.6698361c.6730587 1.1095913 1.2551002 2.271921 1.7404082 3.4755737.3638484 1.1645902 1.5039067 1.0978689 3.6142274-.1091803 3.4141108-1.9409836 5.2697376-3.1722951 5.2697376-3.1722951s1.2916618-2.0562295-1.7404081-1.5406557c-3.03207.5155738-5.5972012.9644262-5.5972012.9644262l-.5821574-1.1585246zm-25.8756851 9.4562299c.0000053.808558-.1999892 1.604557-.5821574 2.317049-.5942857.952295-1.8374344 3.281475.1940525 3.281475h4.2509621c1.3401749 0 1.4008163-1.971311-.388105-2.69918-1.0976093-.612623-.388105-2.899344-.388105-2.899344z" fill="#353e50"/><path d="m54.4620408 50.9932787c.8647476-.0585577 1.6914454-.377895 2.3710787-.9159017.5837263-.3683341 1.2166294-.6521867 1.8798834-.8431147l-.0060641-1.2859016s-2.5166181-1.067541-6.3370263.1577049c-2.0436151.8431147-2.3104373 1.7408196-1.5766763 1.9227869-.0727697.2547541.5033236.6429508.9641982.5762295-.0242566.2183606.9581341.37 1.1582507.1940983.2789505.3760656 1.3886881.200164 1.5463557.1940984z" fill="#f7b7b2"/><path d="m50.7932362 45.2006557c-.8835248.0343408-1.7150329-.4175472-2.1670048-1.1776717-.451972-.7601245-.451972-1.7066632 0-2.4667877.4519719-.7601245 1.28348-1.2120125 2.1670048-1.1776717v.7521311c-.6076686-.0232487-1.1793941.2877592-1.4901371.8106065-.3107429.5228473-.3107429 1.1738086 0 1.6966559.310743.5228473.8824685.8338553 1.4901371.8106065z" fill="#565d6d"/><rect fill="#959db0" fill-rule="nonzero" height="6.957213" rx="2" width="5.021108" x="50.411195" y="39.22"/><path d="m59.4285714 24.6808197c-2.2316035 1.0978688.4730029 3.2511475-2.2619242 4.3126229-3.1715452 1.2313115-5.4941108 2.505082-4.4086297 6.6054099.4148474 1.5001077-.370531 3.071236-1.819242 3.6393442h3.638484c6.719067-2.9842623 1.5706122-5.8290164 5.0999417-7.3514754 3.5293294-1.522459 7.6590087-1.0008197 10.0604081-4.1731147-2.9994884-2.1378543-6.6300116-3.2059077-10.3090379-3.0327869z" fill="url(#a)"/><path d="m44.5168513 45.267377c1.6312537-.2486885 2.0254228.3093443 4.0993586.0303279 1.3280467-.2729508 1.7889213-.4852459 1.7889213-2.4080328.0563093-.4229637-.0893938-.8478063-.3934181-1.1471324-.3040243-.299326-.7310169-.4383289-1.1529376-.3753266.4548105-.127377.9278134-.3821311.8793003-.7036065-.0545773-.4367214-.4669388-.5883607-1.6069971-.3639345-1.4807229.3745564-2.8520619 1.0936404-4.0023323 2.0986886 0 0 .3335277 2.4686885.3881049 2.8690163z" fill="#f7b7b2"/><rect fill="#f5f5f5" fill-rule="nonzero" height="1.934918" rx=".967459" width="208" y="108.877049"/></g><path d="m263-10h218v218h-218z"/><g transform="translate(310 10)"><path d="m114.785249 141.002945c11.989349-7.883557 19.204717-21.216251 19.214751-35.505379 0-23.6079735-19.408778-42.7438722-43.3529412-42.7438722-23.9441629 0-43.3529412 19.1358987-43.3529412 42.7438722 0 23.607973 19.4087783 42.737845 43.3529412 42.737845.782172 0 1.5522172-.018081 2.3222625-.060271.0556961-.023641.1202243-.011763.1637104.030136 6.3422624 7.576007 17.2017193 7.967766 17.2017193 7.967766-4.11095-9.16715 4.450498-15.170097 4.450498-15.170097z" fill="#f5f5f6"/><path d="m27.7883258 111.615026c-17.0321859-11.293144-27.25962818-30.3002503-27.25475114-50.6513675 0-33.6731547 27.53366514-60.9636585 61.50054294-60.9636585 33.9668779 0 61.5066064 27.2905038 61.5066064 60.9636585 0 33.6731548-27.5397285 60.9696855-61.5066064 60.9696855-1.1035294 0-2.2009954-.030135-3.2923981-.090406-.0812923-.033859-.1751535-.01472-.2364706.048217-8.9980091 10.800482-24.4049774 11.354971-24.4049774 11.354971 5.8390045-13.072682-6.3119457-21.6311-6.3119457-21.6311z" fill="#e0e2e4"/><path d="m34.1851584 54.5810076c4.1248881.0083172 7.4629299 3.3371625 7.4579124 7.4373656-.0050176 4.100203-3.3511967 7.4209663-7.4760931 7.4193084-4.1248963-.0016579-7.4683728-3.3251098-7.4700546-7.4253155.0012858-1.9726158.7910227-3.8638952 2.1954091-5.2576147 1.4043865-1.3937194 3.3083322-2.1756628 5.2928262-2.1737438zm27.9641629 0c4.125684.0049914 7.4667683 3.3323697 7.4639795 7.4333606-.0027887 4.1009908-3.3483952 7.4238764-7.4740822 7.4233237-4.1256871-.0005526-7.4703925-3.3243344-7.4720693-7.4253258.0003213-1.9718654.7889161-3.8627884 2.1922002-5.2565425 1.4032842-1.393754 3.3062327-2.1760952 5.2899718-2.174816zm27.9580995 0c4.124089.0116417 7.4590877 3.3419506 7.4518431 7.441364-.0072447 4.0994134-3.3539937 7.4180551-7.4780984 7.4152942-4.1241046-.0027608-7.4663536-3.3258804-7.4680433-7.4252997.0019282-1.9734646.7927038-3.8652865 2.1982625-5.2590408 1.4055588-1.3937543 3.3106889-2.1751968 5.2960361-2.1723177z" fill="#f5f5f6"/><g transform="translate(113.99095 138.019553)"><path d="m16.358914 9.73369338c-.8791855-.23505513-2.5344796 3.03160852-3.6925792 7.28670912-1.1580995 4.2551007-1.3885067 7.8954417-.5032579 8.1244698.8852489.2290281 2.5344797-3.0316085 3.6925792-7.2867092 1.1580996-4.2551006 1.3885068-7.88941459.5032579-8.12446972z" fill="#e0e2e4"/><path d="m.69122172 8.26911908c.98226244-.22300102 2.81945701 2.89901332 4.11095023 6.97330232 1.29149321 4.074289 1.54009049 7.5579266.55782805 7.7809276-.98226244.2230011-2.81945701-2.8990133-4.11095023-6.9733023-1.29149321-4.074289-1.54009049-7.55792659-.55782805-7.78092762z" fill="#ecedee"/><path d="m9.30117647.59667842c-1.81900452 0-3.30452489 2.01303628-3.30452489 8.8657975 0 6.85276118 1.48552037 15.95361388 3.30452489 15.95361388 1.83113123 0 3.31058823-9.1008527 3.31058823-15.95361388 0-6.85276122-1.479457-8.8657975-3.31058823-8.8657975z" fill="#c0c3c7"/><path d="m3.88054299 23.6682439h9.90751131c.8251864-.0043418 1.4980356.6563892 1.5037104 1.4766284l-1.8068778 8.2932273c.0000033.3942712-.1579773.7723067-.4390163 1.0505324s-.6619887.4337258-1.0586308.4321231h-6.30588233c-.39725035.0017619-.77891674-.1534952-1.06095289-.4315823-.28203614-.2780871-.4413134-.6561994-.44275752-1.0510732l-1.80081448-8.2932273c.00567485-.8202392.67852397-1.4809702 1.50371041-1.4766284z" fill="#ecedee"/></g></g><g transform="translate(268 76)"><path d="m48.4767347 17.802459s-.4911953 5.0404918-3.8628571 6.5568853c-.0828533.9646715-.0828533 1.9346727 0 2.8993442h11.9706122v-2.7052459c-2.4917555-1.3308049-4.0487279-3.9255953-4.0508455-6.7509836z" fill="#fac6ba"/><path d="m52.7580175 18.6152459c0 2.6688525-4.851312 3.0327869-4.851312 3.0327869.2839186-.5761556.4879373-1.1883563.606414-1.8196721.074808-.8070125.074808-1.6192171 0-2.4262296.5913278.7409053 1.4782753 1.1844839 2.425656 1.2131148.5177741.0302048 1.0343722-.0764864 1.4978426-.3093443.1326775-.0672531.2439785-.1701784.3213994-.2972131z" fill="#e2a799"/><path d="m43.9953353 9.69885246c-1.3098543.52163934-2.383207 3.05704914 1.431137 4.54311474.8004665 2.8629508 2.8925948 4.4036066 5.1060058 4.6098361 2.2134111.2062295 5.5790088-1.3465574 5.7063557-9.86262297-.5518367-3.70606558-1.2855976-3.76065574-1.2855976-3.76065574l-10.22414-.5095082z" fill="#fac6ba"/><path d="m44.9534694 12.664918s-1.5463557-.454918-2.1830904-4.79180325c-.6367347-4.33688524 1.5281633-7.78213114 6.7311953-7.85491803 5.2030321-.07278688 6.543207 1.48 6.8039651 2.40196721-.3759767 1.92885246-1.7828572 1.98344263-1.776793 3.36032787-1.7464723-.8552459-7.3254811-.58836065-8.2714869.4852459-1.0915452 1.2495082-1.7586006 4.07-1.3037901 6.3991803z" fill="#3e4656"/><path d="m53.7707289 5.53180328s1.5039067.49737705 2.0193586 5.19819672c.6427988-.0788525 2.3650145-5.1557377.2546938-7.36360656 0 0-1.7707288-.04852459-2.2740524 2.16540984z" fill="#14161b"/><path d="m44.2257726 23.5890164s3.1715452 1.9288525 6.3734111 1.9288525c3.2685714 0 6.5674635-1.9288525 6.5674635-1.9288525s9.3690962.867377 12.7468222 4.0518033c3.3777259 3.1844262 10.0300875 28.5081967.5760933 29.5272131-6.4704373-.1940984-13.7110204-6.9511476-13.7110204-6.9511476l-18.1499709 5.5985246s-13.8141108 7.7214754-13.3289796-2.6991803.5821575-21.6116393 5.6032653-25.3783606c5.0211079-3.7667214 13.3229155-4.1488525 13.3229155-4.1488525z" fill="#eeeff0"/><path d="m64.1161516 35.9385246c-1.2006997 2.6445902-.8793003 6.1686885.1940525 8.6859016.8135468 1.7544907 2.2639569 3.1336819 4.0569096 3.8577049 0 0-.4184257-1.8196721-1.5463557-5.9806557-1.2431487-4.5977049-2.1952186-7.685082-2.7046064-6.5629508zm-27.0339359 2.7052459c-.9217492 1.0978688-2.9107871 7.2604918-2.8986588 9.4562295.0060641.5701639 3.7658309-2.6081967 4.0569096-4.6340984.1446614-1.6903096-.2616829-3.3820376-1.1582508-4.8221311z" fill="#d9dcde"/><g fill="#cdd0d4"><path d="m48.6525948 102.320164 10.2544606 1.965246 1.1218659 1.067541h-26.6700875l.9338776-1.067541 10.8123615-1.965246.3759767-.606557v-32.1475414h-14.2507289c-.837283 0-1.516035-.6789125-1.516035-1.5163935 0-.8374809.678752-1.5163934 1.516035-1.5163934h32.7463557c.837283 0 1.516035.6789125 1.516035 1.5163934 0 .837481-.678752 1.5163935-1.516035 1.5163935h-15.4635569v32.1475414z"/><path d="m34.2805831 104.631148c.5872777-.004916 1.1194667.345151 1.3476218.886449.228155.541297.1071682 1.166806-.3063659 1.583929-.4135341.417122-1.0378565.54339-1.5809243.319737-.5430678-.223652-.8975122-.753006-.8975328-1.340443-.0006893-.796191.6412214-1.443671 1.4372012-1.449672zm12.9348105 0c.8004425 0 1.4493294.64904 1.4493294 1.449672 0 .800631-.6488869 1.449672-1.4493294 1.449672-.8004426 0-1.4493295-.649041-1.4493295-1.449672 0-.800632.6488869-1.449672 1.4493295-1.449672zm13.3289796 0c.5872777-.004916 1.1194667.345151 1.3476218.886449.228155.541297.1071681 1.166806-.3063659 1.583929-.4135341.417122-1.0378565.54339-1.5809243.319737-.5430678-.223652-.8975122-.753006-.8975328-1.340443-.0030209-.797148.6402449-1.445995 1.4372012-1.449672z"/><path d="m48.5131195 69.5660656v31.5409834m-3.0320699 0v-31.5409834"/></g><path d="m60.6413994 66.5332787s-20.5998834.2486885-20.6180758 0c-2.8258892 0-7.7317784-11.3547541 3.0441983-14.3814754 13.9172011-3.9122951 20.2178425-5.0647541 22.7890379 2.6991803 2.5711953 7.7639344 11.7644315 36.5511475 11.7644315 36.5511475l-4.244898 2.4262296z" fill="#47546b"/><path d="m47.3002915 66.5332787s4.329796-6.6357377 8.101691-7.0481967c-2.8016326 4.1913114-2.643965 7.0481967-2.643965 7.0481967z" fill="#2e3c56"/><path d="m47.3002915 102.320164 3.4929447-34.7314755s.4002332-9.99 7.3376093-8.6859016c5.9853061 1.1281967 2.3165014 10.6147541 2.3165014 10.6147541l-8.2957434 32.802623z" fill="#5d6d88"/><path d="m74.1583673 92.6698361c.6730587 1.1095913 1.2551002 2.271921 1.7404082 3.4755737.3638484 1.1645902 1.5039067 1.0978689 3.6142274-.1091803 3.4141108-1.9409836 5.2697376-3.1722951 5.2697376-3.1722951s1.2916618-2.0562295-1.7404081-1.5406557c-3.03207.5155738-5.5972012.9644262-5.5972012.9644262l-.5821574-1.1585246zm-25.8756851 9.4562299c.0000053.808558-.1999892 1.604557-.5821574 2.317049-.5942857.952295-1.8374344 3.281475.1940525 3.281475h4.2509621c1.3401749 0 1.4008163-1.971311-.388105-2.69918-1.0976093-.612623-.388105-2.899344-.388105-2.899344z" fill="#353e50"/><path d="m54.4620408 50.9932787c.8647476-.0585577 1.6914454-.377895 2.3710787-.9159017.5837263-.3683341 1.2166294-.6521867 1.8798834-.8431147l-.0060641-1.2859016s-2.5166181-1.067541-6.3370263.1577049c-2.0436151.8431147-2.3104373 1.7408196-1.5766763 1.9227869-.0727697.2547541.5033236.6429508.9641982.5762295-.0242566.2183606.9581341.37 1.1582507.1940983.2789505.3760656 1.3886881.200164 1.5463557.1940984z" fill="#f7b7b2"/><path d="m50.7932362 45.2006557c-.8835248.0343408-1.7150329-.4175472-2.1670048-1.1776717-.451972-.7601245-.451972-1.7066632 0-2.4667877.4519719-.7601245 1.28348-1.2120125 2.1670048-1.1776717v.7521311c-.6076686-.0232487-1.1793941.2877592-1.4901371.8106065-.3107429.5228473-.3107429 1.1738086 0 1.6966559.310743.5228473.8824685.8338553 1.4901371.8106065z" fill="#565d6d"/><rect fill="#959db0" fill-rule="nonzero" height="6.957213" rx="2" width="5.021108" x="50.411195" y="39.22"/><path d="m59.4285714 24.6808197c-2.2316035 1.0978688.4730029 3.2511475-2.2619242 4.3126229-3.1715452 1.2313115-5.4941108 2.505082-4.4086297 6.6054099.4148474 1.5001077-.370531 3.071236-1.819242 3.6393442h3.638484c6.719067-2.9842623 1.5706122-5.8290164 5.0999417-7.3514754 3.5293294-1.522459 7.6590087-1.0008197 10.0604081-4.1731147-2.9994884-2.1378543-6.6300116-3.2059077-10.3090379-3.0327869z" fill="url(#a)"/><path d="m44.5168513 45.267377c1.6312537-.2486885 2.0254228.3093443 4.0993586.0303279 1.3280467-.2729508 1.7889213-.4852459 1.7889213-2.4080328.0563093-.4229637-.0893938-.8478063-.3934181-1.1471324-.3040243-.299326-.7310169-.4383289-1.1529376-.3753266.4548105-.127377.9278134-.3821311.8793003-.7036065-.0545773-.4367214-.4669388-.5883607-1.6069971-.3639345-1.4807229.3745564-2.8520619 1.0936404-4.0023323 2.0986886 0 0 .3335277 2.4686885.3881049 2.8690163z" fill="#f7b7b2"/><rect fill="#f5f5f5" fill-rule="nonzero" height="1.934918" rx=".967459" width="208" y="108.877049"/></g></g></svg>