<svg height="34" viewBox="0 0 704 34" width="704" xmlns="http://www.w3.org/2000/svg"><g fill="none" fill-rule="evenodd"><path d="m11 14c.552 0 1 .448 1 1v12c0 .552-.448 1-1 1h-2c-.552 0-1-.448-1-1v-12c0-.552.448-1 1-1zm14.5259 0c1.273 0 2.223 1.174 1.956 2.419l-2.143 10c-.198.922-1.013 1.581-1.956 1.581h-8.383c-1.104 0-2-.896-2-2v-10.16c0-.557.078-1.112.231-1.648l1.562-5.467c.123-.429.515-.725.962-.725h1.245c1.105 0 2 .896 2 2v4z" fill="#999" transform="translate(-8 -1)"/><g transform="translate(36 7)"><path d="m3.7285 6.1763c.552.029.975.5.946 1.051l-.628 11.984c-.028.551-.499.975-1.05.946l-1.998-.105c-.551-.029-.975-.5-.946-1.051l.628-11.984c.029-.551.499-.975 1.051-.946zm14.5064.7602c1.271.066 2.158 1.289 1.826 2.518l-2.663 9.874c-.246.911-1.094 1.526-2.036 1.477l-8.372-.439c-1.103-.058-1.95-.999-1.892-2.102l.532-10.146c.029-.557.135-1.107.316-1.634l1.847-5.377c.144-.422.552-.698.998-.674l1.243.065c1.103.058 1.951.999 1.893 2.102l-.209 3.994z" fill="#999"/><path d="m1 19.5c0 .22-.14.41-.34.47-.3-.13-.53-.4-.59-.73.09-.15.25-.24.43-.24.28 0 .5.22.5.5" fill="#ff6200"/></g><g transform="translate(72 8)"><path d="m5.6162 5.8296c.542.105.896.63.791 1.172l-2.29 11.78c-.105.542-.63.896-1.172.791l-1.964-.382c-.542-.105-.896-.63-.79-1.172l2.289-11.78c.106-.542.631-.896 1.173-.79zm14.2593 2.772c1.25.243 1.958 1.576 1.458 2.748l-4.012 9.407c-.369.867-1.295 1.359-2.221 1.178l-8.229-1.599c-1.084-.211-1.792-1.26-1.582-2.345l1.939-9.973c.106-.547.288-1.077.541-1.574l2.576-5.068c.202-.398.644-.614 1.083-.528l1.222.237c1.084.211 1.793 1.261 1.582 2.345l-.763 3.926z" fill="#999"/><path d="m3 19c0 .19-.02.38-.05.57h-.01l-1.96-.38c-.54-.1-.89-.62-.79-1.16v-.01l.38-1.96c1.38.26 2.43 1.47 2.43 2.94" fill="#ff6200"/></g><g transform="translate(108 10)"><path d="m7.3945 4.7393c.522.18.8.749.62 1.271l-3.907 11.347c-.18.522-.749.799-1.271.619l-1.891-.651c-.522-.179-.8-.749-.62-1.271l3.907-11.346c.18-.522.749-.8 1.271-.62zm13.7344 4.7295c1.204.415 1.719 1.833 1.062 2.924l-5.282 8.757c-.487.808-1.472 1.166-2.364.859l-7.926-2.73c-1.045-.359-1.6-1.497-1.24-2.542l3.308-9.606c.181-.527.435-1.027.754-1.483l3.257-4.661c.256-.366.723-.518 1.145-.372l1.178.405c1.045.36 1.6 1.498 1.24 2.542l-1.302 3.782z" fill="#999"/><path d="m2.5 12c1.16 0 2.23.36 3.12.97l-1.51 4.39c-.18.51-.74.79-1.25.63-.01-.01-.01-.01-.02-.01l-1.89-.65c-.05-.02-.1-.04-.15-.06-.43-.23-.63-.74-.47-1.22l1.37-3.98v-.01c.26-.04.53-.06.8-.06zm3.9399 1.6602c.96.98 1.56 2.34 1.56 3.84 0 .75-.15 1.46-.42 2.11l-.96-.33h-.01c-1.04-.37-1.59-1.5-1.23-2.54z" fill="#ff6200"/></g><g transform="translate(144 12)"><path d="m8.6357 3.5796c.5.233.717.828.483 1.329l-5.071 10.876c-.233.5-.828.717-1.329.483l-1.812-.845c-.501-.234-.717-.828-.484-1.329l5.071-10.876c.234-.5.829-.717 1.329-.483zm13.1651 6.1387c1.154.539 1.518 2.003.75 3.019l-6.168 8.158c-.569.752-1.586 1.005-2.441.606l-7.598-3.543c-1.001-.467-1.434-1.657-.967-2.658l4.294-9.207c.235-.506.54-.976.905-1.397l3.726-4.294c.293-.338.774-.44 1.178-.251l1.13.526c1.001.467 1.434 1.657.967 2.658l-1.691 3.625z" fill="#999"/><path d="m3.9302 6.5801c1.29.44 2.46 1.13 3.47 2.02l-3.35 7.18c-.24.49-.81.71-1.31.5-.01 0-.01-.01-.02-.01l-1.81-.85c-.49-.23-.71-.81-.5-1.3 0-.01.01-.02.01-.03l3.5-7.51zm4.23 2.75c1.76 1.88 2.84 4.4 2.84 7.17 0 1.18-.2 2.31-.56 3.37l-4.1-1.91c-.02-.01-.05-.02-.07-.04-.95-.49-1.35-1.64-.89-2.62z" fill="#ff6200"/></g><g transform="translate(180 10)"><path d="m7.3945 4.7393-1.891-.651c-.522-.18-1.091.098-1.271.62l-3.907 11.346c-.18.522.098 1.092.62 1.271l1.891.651c.522.18 1.091-.097 1.271-.619l3.907-11.347c.18-.522-.098-1.091-.62-1.271" fill="#c0c0c0"/><path d="m21.1289 9.4688-6.17-2.125 1.302-3.782c.36-1.044-.195-2.182-1.24-2.542l-1.178-.405c-.422-.146-.889.006-1.145.372l-3.257 4.661c-.319.456-.573.956-.754 1.483l-3.308 9.606c-.36 1.045.195 2.183 1.24 2.542l7.926 2.73c.892.307 1.877-.051 2.364-.859l5.282-8.757c.657-1.091.142-2.509-1.062-2.924" fill="#c0c0c0"/><path d="m7.79 4.9902c.25.26.35.65.22 1.02l-3.9 11.35c-.18.51-.74.79-1.25.63-.01-.01-.01-.01-.02-.01l-1.89-.65c-.05-.02-.1-.04-.15-.06-.43-.23-.63-.74-.47-1.22l3.9-11.34c0-.01 0-.01.01-.02.09-.26.28-.45.52-.56 1.06.15 2.08.45 3.03.86zm1.5498.8096c3.4 2.12 5.66 5.9 5.66 10.2 0 2.05-.51 3.98-1.42 5.67l-6.96-2.39h-.01c-1.04-.37-1.59-1.5-1.23-2.54l3.31-9.61c.16-.47.38-.92.65-1.33z" fill="#ff6200"/></g><g transform="translate(208 -1)"><path d="m23.3452 5.3662-.166.496-.495.165.495.165.166.496.165-.496.496-.165-.496-.165z" fill="#ff6200"/><g transform="translate(8 9)"><path d="m5.6162 5.8296c.542.105.896.63.791 1.172l-2.29 11.78c-.105.542-.63.896-1.172.791l-1.964-.382c-.542-.105-.896-.63-.79-1.172l2.289-11.78c.106-.542.631-.896 1.173-.79zm14.2593 2.772c1.25.243 1.958 1.576 1.458 2.748l-4.012 9.407c-.369.867-1.295 1.359-2.221 1.178l-8.229-1.599c-1.084-.211-1.792-1.26-1.582-2.345l1.939-9.973c.106-.547.288-1.077.541-1.574l2.576-5.068c.202-.398.644-.614 1.083-.528l1.222.237c1.084.211 1.793 1.261 1.582 2.345l-.763 3.926z" fill="#cbcbcb"/><path d="m5.6201 5.8301c.54.11.89.63.79 1.17l-2.29 11.78c-.11.54-.63.9-1.18.79l-1.96-.38c-.54-.1-.89-.62-.79-1.16v-.01l2.29-11.78c0-.01 0-.02.01-.03.07-.28.24-.51.48-.65.01-.01.02-.01.03-.01.11-.04.23-.08.34-.11.1-.01.21-.01.31.01zm7.8496 1.5298c2.75 2.1 4.53 5.41 4.53 9.14 0 1.73-.38 3.37-1.07 4.84v.01c-.41.44-1.02.68-1.64.62-.06-.01-.13-.02-.19-.03l-8.23-1.6c-.01 0-.02 0-.03-.01-1.059-.23-1.76-1.26-1.55-2.34l1.94-9.97c.1-.55.29-1.08.54-1.58l.65-1.28c1.88.32 3.6 1.09 5.05 2.2z" fill="#ff6200"/></g></g><g transform="translate(244 -1)"><path d="m23.3452 4.4331-.398 1.196-1.196.398 1.196.399.398 1.195.398-1.195 1.196-.399-1.196-.398z" fill="#ff6200"/><g transform="translate(8 8)"><path d="m3 6c.552 0 1 .448 1 1v12c0 .552-.448 1-1 1h-2c-.552 0-1-.448-1-1v-12c0-.552.448-1 1-1zm14.5259 0c1.273 0 2.223 1.174 1.956 2.419l-2.143 10c-.198.922-1.013 1.581-1.956 1.581h-8.383c-1.104 0-2-.896-2-2v-10.16c0-.557.078-1.112.231-1.648l1.562-5.467c.123-.429.515-.725.962-.725h1.245c1.105 0 2 .896 2 2v4z" fill="#ccc"/><path d="m3 6c.55 0 1 .45 1 1v12c0 .55-.45 1-1 1h-2c-.55 0-1-.45-1-1v-12c0-.55.45-1 1-1zm12.8901 0c1.3 1.17 2.39 2.56 3.23 4.1l-1.78 8.32c-.2.92-1.01 1.58-1.96 1.58h-8.38c-1.1 0-2-.9-2-2v-10.16c0-.56.08-1.11.23-1.65l1.19-4.16c1.6.09 3.14.43 4.58.98v2.99z" fill="#ff6200"/></g></g><g fill="#ff6200"><g transform="translate(280 -1)"><path d="m23.3452 3.0483-.745 2.234-2.234.745 2.234.745.745 2.234.745-2.234 2.234-.745-2.234-.745z"/><path d="m3.0225 7.7187c.547-.077 1.053.304 1.129.851l1.67 11.883c.077.547-.304 1.053-.851 1.13l-1.98.278c-.547.077-1.053-.304-1.13-.851l-1.67-11.883c-.077-.547.305-1.053.852-1.13zm14.3847-2.0214c1.261-.177 2.364.853 2.273 2.123l-.73 10.201c-.067.941-.783 1.707-1.717 1.838l-8.302 1.167c-1.093.153-2.105-.609-2.258-1.703l-1.414-10.061c-.078-.551-.078-1.112-.001-1.664l.786-5.631c.062-.442.409-.79.851-.852l1.234-.173c1.093-.154 2.105.608 2.258 1.702l.557 3.961z" transform="translate(6 6)"/></g><g transform="translate(316 -1)"><path d="m23.3452 1.9336-1.023 3.07-3.071 1.024 3.071 1.023 1.023 3.071 1.023-3.071 3.071-1.023-3.071-1.024z"/><path d="m3.2744 7.7007c.533-.143 1.082.173 1.225.707l3.106 11.591c.143.534-.174 1.082-.707 1.225l-1.933.518c-.533.143-1.081-.174-1.224-.708l-3.106-11.591c-.143-.533.174-1.081.707-1.224zm14.0308-3.7598c1.23-.33 2.451.559 2.515 1.831l.519 10.213c.048.942-.569 1.789-1.48 2.034l-8.097 2.17c-1.068.285-2.165-.348-2.45-1.415l-2.63-9.813c-.144-.539-.212-1.095-.203-1.652l.094-5.685c.007-.446.309-.834.74-.95l1.204-.322c1.067-.286 2.163.347 2.449 1.414l1.036 3.864z" transform="translate(4 6)"/></g><g transform="translate(352 -1)"><path d="m23.3452 1.3872-1.16 3.48-3.48 1.16 3.48 1.16 1.16 3.48 1.16-3.48 3.48-1.16-3.48-1.16z"/><path d="m30.267 12.2355-.375.125.375.125.125.375.125-.375.376-.125-.376-.125-.125-.374z"/><path d="m3.0234 7.6821c.541-.115 1.071.23 1.187.771l2.494 11.737c.115.54-.23 1.071-.77 1.186l-1.956.416c-.54.115-1.072-.23-1.186-.77l-2.495-11.738c-.115-.54.23-1.071.77-1.186zm14.209-3.02c1.245-.265 2.418.686 2.416 1.959l-.017 10.228c-.002.942-.662 1.756-1.585 1.953l-8.199 1.742c-1.081.23-2.143-.46-2.372-1.54l-2.113-9.938c-.116-.545-.155-1.104-.117-1.66l.391-5.672c.031-.446.353-.817.79-.909l1.219-.259c1.08-.23 2.142.46 2.372 1.54l.831 3.913z" transform="translate(5 6)"/></g><g transform="translate(388 -1)"><path d="m23.3452 1.9336-1.023 3.07-3.071 1.024 3.071 1.023 1.023 3.071 1.023-3.071 3.071-1.023-3.071-1.024z"/><path d="m30.3921 11.0991-.315.946-.947.316.947.315.315.946.315-.946.946-.315-.946-.316z"/><path d="m3.0161 6.8247c.551-.039 1.029.377 1.067.928l.837 11.971c.039.551-.377 1.029-.927 1.067l-1.996.139c-.55.039-1.028-.376-1.067-.927l-.837-11.971c-.038-.551.377-1.029.928-1.067zm14.4907-1.0132c1.27-.089 2.299 1.016 2.12 2.277l-1.441 10.125c-.133.933-.899 1.648-1.84 1.713l-8.363.585c-1.102.077-2.058-.754-2.135-1.855l-.708-10.136c-.039-.556 0-1.114.115-1.66l1.177-5.562c.092-.437.463-.759.908-.791l1.243-.087c1.102-.077 2.058.754 2.135 1.856l.279 3.99z" transform="translate(7 7)"/></g><g transform="translate(424 -1)"><path d="m23.3447 3.2148-.703 2.109-2.11.704 2.11.703.703 2.109.703-2.109 2.11-.703-2.11-.704z"/><path d="m30.3916 10.1206-.56 1.68-1.679.56 1.679.56.56 1.68.561-1.68 1.679-.56-1.679-.56z"/><path d="m4.6836 5.4697c.549.067.938.566.871 1.115l-1.463 11.91c-.067.548-.566.938-1.114.871l-1.985-.244c-.548-.067-.938-.566-.871-1.114l1.462-11.911c.068-.548.567-.938 1.115-.871zm14.418 1.7705c1.264.155 2.063 1.436 1.646 2.639l-3.345 9.665c-.309.891-1.198 1.446-2.134 1.33l-8.32-1.021c-1.097-.135-1.876-1.133-1.743-2.229l1.239-10.084c.068-.553.213-1.094.43-1.608l2.216-5.235c.175-.412.6-.658 1.043-.603l1.237.152c1.096.134 1.876 1.132 1.741 2.228l-.488 3.971z" transform="translate(8 9)"/></g><g transform="translate(460 -1)"><path d="m23.3447 4.3081-.43 1.29-1.289.429 1.289.43.43 1.289.43-1.289 1.29-.43-1.29-.429z"/><path d="m30.3916 9.0796-.82 2.461-2.46.82 2.46.82.82 2.461.82-2.461 2.461-.82-2.461-.82z"/><path d="m6.5215 5.2534c.533.143.85.691.707 1.225l-3.106 11.591c-.143.533-.691.85-1.225.707l-1.932-.518c-.533-.143-.849-.691-.707-1.224l3.106-11.592c.143-.533.691-.85 1.225-.707zm14.0312 3.7598c1.229.33 1.843 1.709 1.263 2.843l-4.659 9.104c-.429.84-1.387 1.265-2.297 1.021l-8.098-2.17c-1.067-.285-1.7-1.382-1.414-2.449l2.629-9.813c.144-.539.363-1.055.649-1.533l2.924-4.876c.23-.383.686-.567 1.116-.452l1.204.323c1.067.286 1.7 1.382 1.414 2.449l-1.035 3.864z" transform="translate(8 10)"/></g><g transform="translate(496 -1)"><path d="m23.2272 5.9103-.351.117.351.117.118.352.117-.352.353-.117-.353-.117-.117-.352z"/><path d="m30.3916 8.2041-1.039 3.117-3.117 1.04 3.117 1.039 1.039 3.117 1.039-3.117 3.118-1.039-3.118-1.04z"/><path d="m7.3945 4.7393c.522.18.8.749.62 1.271l-3.907 11.347c-.18.522-.749.799-1.271.619l-1.891-.651c-.523-.179-.8-.749-.62-1.271l3.907-11.346c.18-.522.749-.8 1.271-.62zm13.7344 4.7295c1.204.415 1.72 1.833 1.062 2.924l-5.282 8.757c-.487.808-1.472 1.166-2.364.859l-7.927-2.73c-1.044-.359-1.598-1.497-1.239-2.542l3.308-9.606c.181-.527.435-1.027.754-1.483l3.257-4.661c.256-.366.723-.518 1.145-.372l1.179.405c1.044.36 1.598 1.498 1.239 2.542l-1.302 3.782z" transform="translate(8 11)"/></g><g transform="translate(532 -1)"><path d="m29.2068 11.1762-3.553 1.184 3.553 1.185 1.184 3.554 1.186-3.554 3.554-1.185-3.554-1.184-1.186-3.554z"/><path d="m6.9619 4.4888c.528.162.825.721.664 1.249l-3.509 11.476c-.161.527-.719.825-1.248.663l-1.913-.584c-.528-.162-.825-.721-.664-1.249l3.509-11.476c.161-.528.721-.825 1.249-.663zm13.8916 4.247c1.218.372 1.782 1.772 1.163 2.885l-4.974 8.937c-.458.824-1.429 1.216-2.332.94l-8.016-2.451c-1.057-.323-1.652-1.441-1.328-2.498l2.97-9.715c.163-.534.4-1.041.703-1.509l3.092-4.771c.243-.375.704-.543 1.131-.413l1.192.365c1.056.322 1.651 1.44 1.328 2.497l-1.17 3.825z" transform="translate(8 11)"/></g><g transform="translate(568 -1)"><path d="m30.3916 8.3721-.997 2.991-2.991.998 2.991.997.997 2.991.997-2.991 2.992-.997-2.992-.998z"/><path d="m5.8447 4.9297c.541.115.886.646.771 1.186l-2.496 11.738c-.114.54-.645.885-1.185.77l-1.956-.416c-.541-.114-.886-.646-.771-1.186l2.495-11.738c.115-.54.646-.885 1.186-.77zm14.209 3.02c1.245.265 1.93 1.61 1.41 2.773l-4.176 9.336c-.384.861-1.318 1.336-2.241 1.14l-8.2-1.743c-1.08-.23-1.77-1.292-1.54-2.372l2.112-9.938c.116-.546.308-1.072.569-1.564l2.664-5.023c.21-.394.655-.602 1.091-.509l1.219.258c1.08.23 1.77 1.292 1.54 2.372l-.832 3.913z" transform="translate(8 10)"/></g><g transform="translate(604 -1)"><path d="m30.3916 9.3721-.747 2.241-2.241.748 2.241.747.747 2.241.747-2.241 2.242-.747-2.242-.748z"/><path d="m4.6836 5.4697c.549.067.938.566.871 1.115l-1.463 11.91c-.067.548-.566.938-1.114.871l-1.985-.244c-.548-.067-.938-.566-.871-1.114l1.462-11.911c.068-.548.567-.938 1.115-.871zm14.418 1.7705c1.264.155 2.063 1.436 1.646 2.639l-3.345 9.665c-.309.891-1.198 1.446-2.134 1.33l-8.32-1.021c-1.097-.135-1.876-1.133-1.743-2.229l1.239-10.084c.068-.553.213-1.094.43-1.608l2.216-5.235c.175-.412.6-.658 1.043-.603l1.237.152c1.096.134 1.876 1.132 1.741 2.228l-.488 3.971z" transform="translate(8 9)"/></g><g transform="translate(640 -1)"><path d="m30.3916 10.9346-.356 1.069-1.07.357 1.07.357.356 1.069.356-1.069 1.071-.357-1.071-.357z"/><path d="m3.4863 6.1133c.553.019.984.482.965 1.034l-.419 11.993c-.019.552-.483.984-1.034.964l-1.999-.07c-.552-.019-.984-.482-.964-1.034l.419-11.992c.018-.552.481-.984 1.034-.965zm14.5176.5068c1.272.044 2.18 1.251 1.87 2.486l-2.49 9.919c-.231.915-1.067 1.545-2.01 1.512l-8.378-.293c-1.104-.039-1.968-.964-1.93-2.068l.355-10.154c.02-.557.117-1.109.289-1.639l1.751-5.409c.138-.425.54-.707.986-.691l1.245.043c1.105.039 1.968.965 1.929 2.069l-.139 3.997z" transform="translate(8 8)"/></g><path d="m3 6c.553 0 1 .448 1 1v12c0 .552-.447 1-1 1h-2c-.553 0-1-.448-1-1v-12c0-.552.447-1 1-1zm14.5264 0c1.272 0 2.222 1.174 1.955 2.419l-2.142 10c-.198.922-1.013 1.581-1.957 1.581h-8.382c-1.105 0-2-.896-2-2v-10.16c0-.557.078-1.112.23-1.648l1.563-5.467c.122-.429.514-.725.961-.725h1.246c1.104 0 2 .896 2 2v4z" transform="translate(684 7)"/></g></g></svg>